%TF.GenerationSoftware,KiCad,Pcbnew,(6.0.5)*%
%TF.CreationDate,2022-06-11T21:03:46+02:00*%
%TF.ProjectId,bomba-robotabor,626f6d62-612d-4726-9f62-6f7461626f72,rev?*%
%TF.SameCoordinates,Original*%
%TF.FileFunction,Legend,Top*%
%TF.FilePolarity,Positive*%
%FSLAX46Y46*%
G04 Gerber Fmt 4.6, Leading zero omitted, Abs format (unit mm)*
G04 Created by KiCad (PCBNEW (6.0.5)) date 2022-06-11 21:03:46*
%MOMM*%
%LPD*%
G01*
G04 APERTURE LIST*
%ADD10C,0.120000*%
%ADD11C,0.150000*%
G04 APERTURE END LIST*
D10*
X120396000Y-77470000D02*
X140970000Y-69850000D01*
X129540000Y-57150000D02*
X160020000Y-48260000D01*
X166370000Y-64770000D02*
X153670000Y-72390000D01*
X186436000Y-42672000D02*
X186436000Y-80264000D01*
X179324000Y-80264000D02*
X179324000Y-95504000D01*
X140970000Y-72390000D02*
X160020000Y-82550000D01*
X167640000Y-52070000D02*
X138430000Y-59690000D01*
X121920000Y-52070000D02*
X129540000Y-59690000D01*
X152400000Y-52070000D02*
X116840000Y-57150000D01*
X181610000Y-77470000D02*
X179070000Y-69850000D01*
X116840000Y-72390000D02*
X157480000Y-82550000D01*
X166370000Y-77470000D02*
X153670000Y-59690000D01*
X129540000Y-72390000D02*
X140970000Y-59690000D01*
X166370000Y-69850000D02*
X181610000Y-57150000D01*
X156210000Y-79248000D02*
X166370000Y-67310000D01*
X166370000Y-57150000D02*
X153670000Y-62230000D01*
X153670000Y-57150000D02*
X162560000Y-48260000D01*
X135636000Y-77470000D02*
X163830000Y-67310000D01*
X166370000Y-60960000D02*
X153670000Y-67310000D01*
X116840000Y-59690000D02*
X138430000Y-57150000D01*
X186436000Y-80264000D02*
X179324000Y-80264000D01*
X179070000Y-67310000D02*
X153670000Y-69850000D01*
X163830000Y-64770000D02*
X140970000Y-67310000D01*
X166370000Y-72390000D02*
X162560000Y-82550000D01*
X129540000Y-64770000D02*
X140970000Y-64770000D01*
X116840000Y-69850000D02*
X140970000Y-57150000D01*
X140970000Y-79248000D02*
X153670000Y-64770000D01*
X213360000Y-42672000D02*
X186436000Y-42672000D01*
X179070000Y-64770000D02*
X181610000Y-60960000D01*
X140970000Y-62230000D02*
X137160000Y-52070000D01*
D11*
X206629047Y-67381428D02*
X207390952Y-67381428D01*
X201549047Y-67381428D02*
X202310952Y-67381428D01*
X201930000Y-67762380D02*
X201930000Y-67000476D01*
X186618571Y-82931047D02*
X186618571Y-83692952D01*
X186237619Y-83312000D02*
X186999523Y-83312000D01*
X122509142Y-43553142D02*
X123794857Y-43981714D01*
X124223428Y-44410285D01*
X124652000Y-45267428D01*
X124652000Y-46553142D01*
X124223428Y-47410285D01*
X123794857Y-47838857D01*
X122937714Y-48267428D01*
X119509142Y-48267428D01*
X119509142Y-39267428D01*
X122509142Y-39267428D01*
X123366285Y-39696000D01*
X123794857Y-40124571D01*
X124223428Y-40981714D01*
X124223428Y-41838857D01*
X123794857Y-42696000D01*
X123366285Y-43124571D01*
X122509142Y-43553142D01*
X119509142Y-43553142D01*
X128080571Y-45696000D02*
X132366285Y-45696000D01*
X127223428Y-48267428D02*
X130223428Y-39267428D01*
X133223428Y-48267428D01*
X135794857Y-47838857D02*
X137080571Y-48267428D01*
X139223428Y-48267428D01*
X140080571Y-47838857D01*
X140509142Y-47410285D01*
X140937714Y-46553142D01*
X140937714Y-45696000D01*
X140509142Y-44838857D01*
X140080571Y-44410285D01*
X139223428Y-43981714D01*
X137509142Y-43553142D01*
X136652000Y-43124571D01*
X136223428Y-42696000D01*
X135794857Y-41838857D01*
X135794857Y-40981714D01*
X136223428Y-40124571D01*
X136652000Y-39696000D01*
X137509142Y-39267428D01*
X139652000Y-39267428D01*
X140937714Y-39696000D01*
X144794857Y-48267428D02*
X144794857Y-39267428D01*
X154223428Y-47410285D02*
X153794857Y-47838857D01*
X152509142Y-48267428D01*
X151652000Y-48267428D01*
X150366285Y-47838857D01*
X149509142Y-46981714D01*
X149080571Y-46124571D01*
X148652000Y-44410285D01*
X148652000Y-43124571D01*
X149080571Y-41410285D01*
X149509142Y-40553142D01*
X150366285Y-39696000D01*
X151652000Y-39267428D01*
X152509142Y-39267428D01*
X153794857Y-39696000D01*
X154223428Y-40124571D01*
X190310857Y-41544761D02*
X190310857Y-39544761D01*
X190787047Y-39544761D01*
X191072761Y-39640000D01*
X191263238Y-39830476D01*
X191358476Y-40020952D01*
X191453714Y-40401904D01*
X191453714Y-40687619D01*
X191358476Y-41068571D01*
X191263238Y-41259047D01*
X191072761Y-41449523D01*
X190787047Y-41544761D01*
X190310857Y-41544761D01*
X192691809Y-39544761D02*
X193072761Y-39544761D01*
X193263238Y-39640000D01*
X193453714Y-39830476D01*
X193548952Y-40211428D01*
X193548952Y-40878095D01*
X193453714Y-41259047D01*
X193263238Y-41449523D01*
X193072761Y-41544761D01*
X192691809Y-41544761D01*
X192501333Y-41449523D01*
X192310857Y-41259047D01*
X192215619Y-40878095D01*
X192215619Y-40211428D01*
X192310857Y-39830476D01*
X192501333Y-39640000D01*
X192691809Y-39544761D01*
X195929904Y-41544761D02*
X195929904Y-39544761D01*
X197072761Y-41544761D01*
X197072761Y-39544761D01*
X198406095Y-39544761D02*
X198787047Y-39544761D01*
X198977523Y-39640000D01*
X199168000Y-39830476D01*
X199263238Y-40211428D01*
X199263238Y-40878095D01*
X199168000Y-41259047D01*
X198977523Y-41449523D01*
X198787047Y-41544761D01*
X198406095Y-41544761D01*
X198215619Y-41449523D01*
X198025142Y-41259047D01*
X197929904Y-40878095D01*
X197929904Y-40211428D01*
X198025142Y-39830476D01*
X198215619Y-39640000D01*
X198406095Y-39544761D01*
X199834666Y-39544761D02*
X200977523Y-39544761D01*
X200406095Y-41544761D02*
X200406095Y-39544761D01*
X202882285Y-39544761D02*
X204025142Y-39544761D01*
X203453714Y-41544761D02*
X203453714Y-39544761D01*
X205072761Y-39544761D02*
X205453714Y-39544761D01*
X205644190Y-39640000D01*
X205834666Y-39830476D01*
X205929904Y-40211428D01*
X205929904Y-40878095D01*
X205834666Y-41259047D01*
X205644190Y-41449523D01*
X205453714Y-41544761D01*
X205072761Y-41544761D01*
X204882285Y-41449523D01*
X204691809Y-41259047D01*
X204596571Y-40878095D01*
X204596571Y-40211428D01*
X204691809Y-39830476D01*
X204882285Y-39640000D01*
X205072761Y-39544761D01*
X206787047Y-39544761D02*
X206787047Y-41163809D01*
X206882285Y-41354285D01*
X206977523Y-41449523D01*
X207168000Y-41544761D01*
X207548952Y-41544761D01*
X207739428Y-41449523D01*
X207834666Y-41354285D01*
X207929904Y-41163809D01*
X207929904Y-39544761D01*
X210025142Y-41354285D02*
X209929904Y-41449523D01*
X209644190Y-41544761D01*
X209453714Y-41544761D01*
X209168000Y-41449523D01*
X208977523Y-41259047D01*
X208882285Y-41068571D01*
X208787047Y-40687619D01*
X208787047Y-40401904D01*
X208882285Y-40020952D01*
X208977523Y-39830476D01*
X209168000Y-39640000D01*
X209453714Y-39544761D01*
X209644190Y-39544761D01*
X209929904Y-39640000D01*
X210025142Y-39735238D01*
X210882285Y-41544761D02*
X210882285Y-39544761D01*
X210882285Y-40497142D02*
X212025142Y-40497142D01*
X212025142Y-41544761D02*
X212025142Y-39544761D01*
X119699523Y-83534285D02*
X120270952Y-83724761D01*
X120461428Y-83915238D01*
X120651904Y-84296190D01*
X120651904Y-84867619D01*
X120461428Y-85248571D01*
X120270952Y-85439047D01*
X119890000Y-85629523D01*
X118366190Y-85629523D01*
X118366190Y-81629523D01*
X119699523Y-81629523D01*
X120080476Y-81820000D01*
X120270952Y-82010476D01*
X120461428Y-82391428D01*
X120461428Y-82772380D01*
X120270952Y-83153333D01*
X120080476Y-83343809D01*
X119699523Y-83534285D01*
X118366190Y-83534285D01*
X123128095Y-81629523D02*
X123890000Y-81629523D01*
X124270952Y-81820000D01*
X124651904Y-82200952D01*
X124842380Y-82962857D01*
X124842380Y-84296190D01*
X124651904Y-85058095D01*
X124270952Y-85439047D01*
X123890000Y-85629523D01*
X123128095Y-85629523D01*
X122747142Y-85439047D01*
X122366190Y-85058095D01*
X122175714Y-84296190D01*
X122175714Y-82962857D01*
X122366190Y-82200952D01*
X122747142Y-81820000D01*
X123128095Y-81629523D01*
X126556666Y-85629523D02*
X126556666Y-81629523D01*
X127890000Y-84486666D01*
X129223333Y-81629523D01*
X129223333Y-85629523D01*
X132461428Y-83534285D02*
X133032857Y-83724761D01*
X133223333Y-83915238D01*
X133413809Y-84296190D01*
X133413809Y-84867619D01*
X133223333Y-85248571D01*
X133032857Y-85439047D01*
X132651904Y-85629523D01*
X131128095Y-85629523D01*
X131128095Y-81629523D01*
X132461428Y-81629523D01*
X132842380Y-81820000D01*
X133032857Y-82010476D01*
X133223333Y-82391428D01*
X133223333Y-82772380D01*
X133032857Y-83153333D01*
X132842380Y-83343809D01*
X132461428Y-83534285D01*
X131128095Y-83534285D01*
X139509047Y-83534285D02*
X140080476Y-83724761D01*
X140270952Y-83915238D01*
X140461428Y-84296190D01*
X140461428Y-84867619D01*
X140270952Y-85248571D01*
X140080476Y-85439047D01*
X139699523Y-85629523D01*
X138175714Y-85629523D01*
X138175714Y-81629523D01*
X139509047Y-81629523D01*
X139890000Y-81820000D01*
X140080476Y-82010476D01*
X140270952Y-82391428D01*
X140270952Y-82772380D01*
X140080476Y-83153333D01*
X139890000Y-83343809D01*
X139509047Y-83534285D01*
X138175714Y-83534285D01*
X141985238Y-84486666D02*
X143890000Y-84486666D01*
X141604285Y-85629523D02*
X142937619Y-81629523D01*
X144270952Y-85629523D01*
X145413809Y-85439047D02*
X145985238Y-85629523D01*
X146937619Y-85629523D01*
X147318571Y-85439047D01*
X147509047Y-85248571D01*
X147699523Y-84867619D01*
X147699523Y-84486666D01*
X147509047Y-84105714D01*
X147318571Y-83915238D01*
X146937619Y-83724761D01*
X146175714Y-83534285D01*
X145794761Y-83343809D01*
X145604285Y-83153333D01*
X145413809Y-82772380D01*
X145413809Y-82391428D01*
X145604285Y-82010476D01*
X145794761Y-81820000D01*
X146175714Y-81629523D01*
X147128095Y-81629523D01*
X147699523Y-81820000D01*
X149413809Y-85629523D02*
X149413809Y-81629523D01*
X153604285Y-85248571D02*
X153413809Y-85439047D01*
X152842380Y-85629523D01*
X152461428Y-85629523D01*
X151890000Y-85439047D01*
X151509047Y-85058095D01*
X151318571Y-84677142D01*
X151128095Y-83915238D01*
X151128095Y-83343809D01*
X151318571Y-82581904D01*
X151509047Y-82200952D01*
X151890000Y-81820000D01*
X152461428Y-81629523D01*
X152842380Y-81629523D01*
X153413809Y-81820000D01*
X153604285Y-82010476D01*
X186618571Y-85471047D02*
X186618571Y-86232952D01*
X119318095Y-89804761D02*
X119318095Y-87804761D01*
X119318095Y-88566666D02*
X119508571Y-88471428D01*
X119889523Y-88471428D01*
X120080000Y-88566666D01*
X120175238Y-88661904D01*
X120270476Y-88852380D01*
X120270476Y-89423809D01*
X120175238Y-89614285D01*
X120080000Y-89709523D01*
X119889523Y-89804761D01*
X119508571Y-89804761D01*
X119318095Y-89709523D01*
X120937142Y-88471428D02*
X121413333Y-89804761D01*
X121889523Y-88471428D02*
X121413333Y-89804761D01*
X121222857Y-90280952D01*
X121127619Y-90376190D01*
X120937142Y-90471428D01*
X124175238Y-88471428D02*
X124175238Y-90471428D01*
X124175238Y-88566666D02*
X124365714Y-88471428D01*
X124746666Y-88471428D01*
X124937142Y-88566666D01*
X125032380Y-88661904D01*
X125127619Y-88852380D01*
X125127619Y-89423809D01*
X125032380Y-89614285D01*
X124937142Y-89709523D01*
X124746666Y-89804761D01*
X124365714Y-89804761D01*
X124175238Y-89709523D01*
X125984761Y-89804761D02*
X125984761Y-87804761D01*
X126841904Y-89804761D02*
X126841904Y-88757142D01*
X126746666Y-88566666D01*
X126556190Y-88471428D01*
X126270476Y-88471428D01*
X126080000Y-88566666D01*
X125984761Y-88661904D01*
X128651428Y-88471428D02*
X128651428Y-89804761D01*
X127794285Y-88471428D02*
X127794285Y-89519047D01*
X127889523Y-89709523D01*
X128080000Y-89804761D01*
X128365714Y-89804761D01*
X128556190Y-89709523D01*
X128651428Y-89614285D01*
X129603809Y-89804761D02*
X129603809Y-88471428D01*
X129603809Y-87804761D02*
X129508571Y-87900000D01*
X129603809Y-87995238D01*
X129699047Y-87900000D01*
X129603809Y-87804761D01*
X129603809Y-87995238D01*
X131413333Y-89804761D02*
X131413333Y-87804761D01*
X131413333Y-89709523D02*
X131222857Y-89804761D01*
X130841904Y-89804761D01*
X130651428Y-89709523D01*
X130556190Y-89614285D01*
X130460952Y-89423809D01*
X130460952Y-88852380D01*
X130556190Y-88661904D01*
X130651428Y-88566666D01*
X130841904Y-88471428D01*
X131222857Y-88471428D01*
X131413333Y-88566666D01*
X135508571Y-89804761D02*
X135413333Y-89804761D01*
X135222857Y-89709523D01*
X134937142Y-89423809D01*
X134460952Y-88852380D01*
X134270476Y-88566666D01*
X134175238Y-88280952D01*
X134175238Y-88090476D01*
X134270476Y-87900000D01*
X134460952Y-87804761D01*
X134556190Y-87804761D01*
X134746666Y-87900000D01*
X134841904Y-88090476D01*
X134841904Y-88185714D01*
X134746666Y-88376190D01*
X134651428Y-88471428D01*
X134080000Y-88852380D01*
X133984761Y-88947619D01*
X133889523Y-89138095D01*
X133889523Y-89423809D01*
X133984761Y-89614285D01*
X134080000Y-89709523D01*
X134270476Y-89804761D01*
X134556190Y-89804761D01*
X134746666Y-89709523D01*
X134841904Y-89614285D01*
X135127619Y-89233333D01*
X135222857Y-88947619D01*
X135222857Y-88757142D01*
X137889523Y-89804761D02*
X137889523Y-87804761D01*
X138556190Y-89233333D01*
X139222857Y-87804761D01*
X139222857Y-89804761D01*
X140175238Y-89804761D02*
X140175238Y-88471428D01*
X140175238Y-87804761D02*
X140080000Y-87900000D01*
X140175238Y-87995238D01*
X140270476Y-87900000D01*
X140175238Y-87804761D01*
X140175238Y-87995238D01*
X141413333Y-89804761D02*
X141222857Y-89709523D01*
X141127619Y-89519047D01*
X141127619Y-87804761D01*
X143032380Y-89804761D02*
X143032380Y-87804761D01*
X143032380Y-89709523D02*
X142841904Y-89804761D01*
X142460952Y-89804761D01*
X142270476Y-89709523D01*
X142175238Y-89614285D01*
X142080000Y-89423809D01*
X142080000Y-88852380D01*
X142175238Y-88661904D01*
X142270476Y-88566666D01*
X142460952Y-88471428D01*
X142841904Y-88471428D01*
X143032380Y-88566666D01*
X144841904Y-89804761D02*
X144841904Y-88757142D01*
X144746666Y-88566666D01*
X144556190Y-88471428D01*
X144175238Y-88471428D01*
X143984761Y-88566666D01*
X144841904Y-89709523D02*
X144651428Y-89804761D01*
X144175238Y-89804761D01*
X143984761Y-89709523D01*
X143889523Y-89519047D01*
X143889523Y-89328571D01*
X143984761Y-89138095D01*
X144175238Y-89042857D01*
X144651428Y-89042857D01*
X144841904Y-88947619D01*
%TO.C,R1*%
X159853333Y-52522380D02*
X159520000Y-52046190D01*
X159281904Y-52522380D02*
X159281904Y-51522380D01*
X159662857Y-51522380D01*
X159758095Y-51570000D01*
X159805714Y-51617619D01*
X159853333Y-51712857D01*
X159853333Y-51855714D01*
X159805714Y-51950952D01*
X159758095Y-51998571D01*
X159662857Y-52046190D01*
X159281904Y-52046190D01*
X160805714Y-52522380D02*
X160234285Y-52522380D01*
X160520000Y-52522380D02*
X160520000Y-51522380D01*
X160424761Y-51665238D01*
X160329523Y-51760476D01*
X160234285Y-51808095D01*
%TO.C,R2*%
X129373333Y-52522380D02*
X129040000Y-52046190D01*
X128801904Y-52522380D02*
X128801904Y-51522380D01*
X129182857Y-51522380D01*
X129278095Y-51570000D01*
X129325714Y-51617619D01*
X129373333Y-51712857D01*
X129373333Y-51855714D01*
X129325714Y-51950952D01*
X129278095Y-51998571D01*
X129182857Y-52046190D01*
X128801904Y-52046190D01*
X129754285Y-51617619D02*
X129801904Y-51570000D01*
X129897142Y-51522380D01*
X130135238Y-51522380D01*
X130230476Y-51570000D01*
X130278095Y-51617619D01*
X130325714Y-51712857D01*
X130325714Y-51808095D01*
X130278095Y-51950952D01*
X129706666Y-52522380D01*
X130325714Y-52522380D01*
%TO.C,R3*%
X148423333Y-79700380D02*
X148090000Y-79224190D01*
X147851904Y-79700380D02*
X147851904Y-78700380D01*
X148232857Y-78700380D01*
X148328095Y-78748000D01*
X148375714Y-78795619D01*
X148423333Y-78890857D01*
X148423333Y-79033714D01*
X148375714Y-79128952D01*
X148328095Y-79176571D01*
X148232857Y-79224190D01*
X147851904Y-79224190D01*
X148756666Y-78700380D02*
X149375714Y-78700380D01*
X149042380Y-79081333D01*
X149185238Y-79081333D01*
X149280476Y-79128952D01*
X149328095Y-79176571D01*
X149375714Y-79271809D01*
X149375714Y-79509904D01*
X149328095Y-79605142D01*
X149280476Y-79652761D01*
X149185238Y-79700380D01*
X148899523Y-79700380D01*
X148804285Y-79652761D01*
X148756666Y-79605142D01*
%TO.C,R4*%
X173823333Y-57602380D02*
X173490000Y-57126190D01*
X173251904Y-57602380D02*
X173251904Y-56602380D01*
X173632857Y-56602380D01*
X173728095Y-56650000D01*
X173775714Y-56697619D01*
X173823333Y-56792857D01*
X173823333Y-56935714D01*
X173775714Y-57030952D01*
X173728095Y-57078571D01*
X173632857Y-57126190D01*
X173251904Y-57126190D01*
X174680476Y-56935714D02*
X174680476Y-57602380D01*
X174442380Y-56554761D02*
X174204285Y-57269047D01*
X174823333Y-57269047D01*
%TO.C,R5*%
X173823333Y-77922380D02*
X173490000Y-77446190D01*
X173251904Y-77922380D02*
X173251904Y-76922380D01*
X173632857Y-76922380D01*
X173728095Y-76970000D01*
X173775714Y-77017619D01*
X173823333Y-77112857D01*
X173823333Y-77255714D01*
X173775714Y-77350952D01*
X173728095Y-77398571D01*
X173632857Y-77446190D01*
X173251904Y-77446190D01*
X174728095Y-76922380D02*
X174251904Y-76922380D01*
X174204285Y-77398571D01*
X174251904Y-77350952D01*
X174347142Y-77303333D01*
X174585238Y-77303333D01*
X174680476Y-77350952D01*
X174728095Y-77398571D01*
X174775714Y-77493809D01*
X174775714Y-77731904D01*
X174728095Y-77827142D01*
X174680476Y-77874761D01*
X174585238Y-77922380D01*
X174347142Y-77922380D01*
X174251904Y-77874761D01*
X174204285Y-77827142D01*
%TO.C,R6*%
X127849333Y-77922380D02*
X127516000Y-77446190D01*
X127277904Y-77922380D02*
X127277904Y-76922380D01*
X127658857Y-76922380D01*
X127754095Y-76970000D01*
X127801714Y-77017619D01*
X127849333Y-77112857D01*
X127849333Y-77255714D01*
X127801714Y-77350952D01*
X127754095Y-77398571D01*
X127658857Y-77446190D01*
X127277904Y-77446190D01*
X128706476Y-76922380D02*
X128516000Y-76922380D01*
X128420761Y-76970000D01*
X128373142Y-77017619D01*
X128277904Y-77160476D01*
X128230285Y-77350952D01*
X128230285Y-77731904D01*
X128277904Y-77827142D01*
X128325523Y-77874761D01*
X128420761Y-77922380D01*
X128611238Y-77922380D01*
X128706476Y-77874761D01*
X128754095Y-77827142D01*
X128801714Y-77731904D01*
X128801714Y-77493809D01*
X128754095Y-77398571D01*
X128706476Y-77350952D01*
X128611238Y-77303333D01*
X128420761Y-77303333D01*
X128325523Y-77350952D01*
X128277904Y-77398571D01*
X128230285Y-77493809D01*
%TO.C,R7*%
X173823333Y-61412380D02*
X173490000Y-60936190D01*
X173251904Y-61412380D02*
X173251904Y-60412380D01*
X173632857Y-60412380D01*
X173728095Y-60460000D01*
X173775714Y-60507619D01*
X173823333Y-60602857D01*
X173823333Y-60745714D01*
X173775714Y-60840952D01*
X173728095Y-60888571D01*
X173632857Y-60936190D01*
X173251904Y-60936190D01*
X174156666Y-60412380D02*
X174823333Y-60412380D01*
X174394761Y-61412380D01*
%TO.C,U1*%
X122428095Y-60412380D02*
X122428095Y-61221904D01*
X122475714Y-61317142D01*
X122523333Y-61364761D01*
X122618571Y-61412380D01*
X122809047Y-61412380D01*
X122904285Y-61364761D01*
X122951904Y-61317142D01*
X122999523Y-61221904D01*
X122999523Y-60412380D01*
X123999523Y-61412380D02*
X123428095Y-61412380D01*
X123713809Y-61412380D02*
X123713809Y-60412380D01*
X123618571Y-60555238D01*
X123523333Y-60650476D01*
X123428095Y-60698095D01*
%TO.C,U2*%
X146558095Y-60412380D02*
X146558095Y-61221904D01*
X146605714Y-61317142D01*
X146653333Y-61364761D01*
X146748571Y-61412380D01*
X146939047Y-61412380D01*
X147034285Y-61364761D01*
X147081904Y-61317142D01*
X147129523Y-61221904D01*
X147129523Y-60412380D01*
X147558095Y-60507619D02*
X147605714Y-60460000D01*
X147700952Y-60412380D01*
X147939047Y-60412380D01*
X148034285Y-60460000D01*
X148081904Y-60507619D01*
X148129523Y-60602857D01*
X148129523Y-60698095D01*
X148081904Y-60840952D01*
X147510476Y-61412380D01*
X148129523Y-61412380D01*
%TO.C,U3*%
X171958095Y-65492380D02*
X171958095Y-66301904D01*
X172005714Y-66397142D01*
X172053333Y-66444761D01*
X172148571Y-66492380D01*
X172339047Y-66492380D01*
X172434285Y-66444761D01*
X172481904Y-66397142D01*
X172529523Y-66301904D01*
X172529523Y-65492380D01*
X172910476Y-65492380D02*
X173529523Y-65492380D01*
X173196190Y-65873333D01*
X173339047Y-65873333D01*
X173434285Y-65920952D01*
X173481904Y-65968571D01*
X173529523Y-66063809D01*
X173529523Y-66301904D01*
X173481904Y-66397142D01*
X173434285Y-66444761D01*
X173339047Y-66492380D01*
X173053333Y-66492380D01*
X172958095Y-66444761D01*
X172910476Y-66397142D01*
%TO.C, *%
%TO.C,RESET*%
X205362380Y-85272380D02*
X204886190Y-85605714D01*
X205362380Y-85843809D02*
X204362380Y-85843809D01*
X204362380Y-85462857D01*
X204410000Y-85367619D01*
X204457619Y-85320000D01*
X204552857Y-85272380D01*
X204695714Y-85272380D01*
X204790952Y-85320000D01*
X204838571Y-85367619D01*
X204886190Y-85462857D01*
X204886190Y-85843809D01*
X204838571Y-84843809D02*
X204838571Y-84510476D01*
X205362380Y-84367619D02*
X205362380Y-84843809D01*
X204362380Y-84843809D01*
X204362380Y-84367619D01*
X205314761Y-83986666D02*
X205362380Y-83843809D01*
X205362380Y-83605714D01*
X205314761Y-83510476D01*
X205267142Y-83462857D01*
X205171904Y-83415238D01*
X205076666Y-83415238D01*
X204981428Y-83462857D01*
X204933809Y-83510476D01*
X204886190Y-83605714D01*
X204838571Y-83796190D01*
X204790952Y-83891428D01*
X204743333Y-83939047D01*
X204648095Y-83986666D01*
X204552857Y-83986666D01*
X204457619Y-83939047D01*
X204410000Y-83891428D01*
X204362380Y-83796190D01*
X204362380Y-83558095D01*
X204410000Y-83415238D01*
X204838571Y-82986666D02*
X204838571Y-82653333D01*
X205362380Y-82510476D02*
X205362380Y-82986666D01*
X204362380Y-82986666D01*
X204362380Y-82510476D01*
X204362380Y-82224761D02*
X204362380Y-81653333D01*
X205362380Y-81939047D02*
X204362380Y-81939047D01*
%TO.C,LED*%
X181912380Y-85224857D02*
X181912380Y-85701047D01*
X180912380Y-85701047D01*
X181388571Y-84891523D02*
X181388571Y-84558190D01*
X181912380Y-84415333D02*
X181912380Y-84891523D01*
X180912380Y-84891523D01*
X180912380Y-84415333D01*
X181912380Y-83986761D02*
X180912380Y-83986761D01*
X180912380Y-83748666D01*
X180960000Y-83605809D01*
X181055238Y-83510571D01*
X181150476Y-83462952D01*
X181340952Y-83415333D01*
X181483809Y-83415333D01*
X181674285Y-83462952D01*
X181769523Y-83510571D01*
X181864761Y-83605809D01*
X181912380Y-83748666D01*
X181912380Y-83986761D01*
%TO.C,PIEZO*%
X202557619Y-77472380D02*
X202557619Y-76472380D01*
X202938571Y-76472380D01*
X203033809Y-76520000D01*
X203081428Y-76567619D01*
X203129047Y-76662857D01*
X203129047Y-76805714D01*
X203081428Y-76900952D01*
X203033809Y-76948571D01*
X202938571Y-76996190D01*
X202557619Y-76996190D01*
X203557619Y-77472380D02*
X203557619Y-76472380D01*
X204033809Y-76948571D02*
X204367142Y-76948571D01*
X204510000Y-77472380D02*
X204033809Y-77472380D01*
X204033809Y-76472380D01*
X204510000Y-76472380D01*
X204843333Y-76472380D02*
X205510000Y-76472380D01*
X204843333Y-77472380D01*
X205510000Y-77472380D01*
X206081428Y-76472380D02*
X206271904Y-76472380D01*
X206367142Y-76520000D01*
X206462380Y-76615238D01*
X206510000Y-76805714D01*
X206510000Y-77139047D01*
X206462380Y-77329523D01*
X206367142Y-77424761D01*
X206271904Y-77472380D01*
X206081428Y-77472380D01*
X205986190Y-77424761D01*
X205890952Y-77329523D01*
X205843333Y-77139047D01*
X205843333Y-76805714D01*
X205890952Y-76615238D01*
X205986190Y-76520000D01*
X206081428Y-76472380D01*
%TO.C, *%
D10*
%TO.C,R1*%
X164060000Y-52070000D02*
X163290000Y-52070000D01*
X163290000Y-53440000D02*
X163290000Y-50700000D01*
X156750000Y-50700000D02*
X156750000Y-53440000D01*
X163290000Y-50700000D02*
X156750000Y-50700000D01*
X155980000Y-52070000D02*
X156750000Y-52070000D01*
X156750000Y-53440000D02*
X163290000Y-53440000D01*
%TO.C,R2*%
X132810000Y-50700000D02*
X126270000Y-50700000D01*
X125500000Y-52070000D02*
X126270000Y-52070000D01*
X132810000Y-53440000D02*
X132810000Y-50700000D01*
X133580000Y-52070000D02*
X132810000Y-52070000D01*
X126270000Y-53440000D02*
X132810000Y-53440000D01*
X126270000Y-50700000D02*
X126270000Y-53440000D01*
%TO.C,R3*%
X144550000Y-79248000D02*
X145320000Y-79248000D01*
X151860000Y-80618000D02*
X151860000Y-77878000D01*
X152630000Y-79248000D02*
X151860000Y-79248000D01*
X145320000Y-80618000D02*
X151860000Y-80618000D01*
X151860000Y-77878000D02*
X145320000Y-77878000D01*
X145320000Y-77878000D02*
X145320000Y-80618000D01*
%TO.C,R4*%
X178030000Y-57150000D02*
X177260000Y-57150000D01*
X169950000Y-57150000D02*
X170720000Y-57150000D01*
X170720000Y-58520000D02*
X177260000Y-58520000D01*
X177260000Y-55780000D02*
X170720000Y-55780000D01*
X177260000Y-58520000D02*
X177260000Y-55780000D01*
X170720000Y-55780000D02*
X170720000Y-58520000D01*
%TO.C,R5*%
X177260000Y-76100000D02*
X170720000Y-76100000D01*
X170720000Y-78840000D02*
X177260000Y-78840000D01*
X170720000Y-76100000D02*
X170720000Y-78840000D01*
X177260000Y-78840000D02*
X177260000Y-76100000D01*
X178030000Y-77470000D02*
X177260000Y-77470000D01*
X169950000Y-77470000D02*
X170720000Y-77470000D01*
%TO.C,R6*%
X132056000Y-77470000D02*
X131286000Y-77470000D01*
X124746000Y-76100000D02*
X124746000Y-78840000D01*
X123976000Y-77470000D02*
X124746000Y-77470000D01*
X124746000Y-78840000D02*
X131286000Y-78840000D01*
X131286000Y-76100000D02*
X124746000Y-76100000D01*
X131286000Y-78840000D02*
X131286000Y-76100000D01*
%TO.C,R7*%
X178030000Y-60960000D02*
X177260000Y-60960000D01*
X169950000Y-60960000D02*
X170720000Y-60960000D01*
X177260000Y-62330000D02*
X177260000Y-59590000D01*
X177260000Y-59590000D02*
X170720000Y-59590000D01*
X170720000Y-59590000D02*
X170720000Y-62330000D01*
X170720000Y-62330000D02*
X177260000Y-62330000D01*
%TO.C,U1*%
X120540000Y-55820000D02*
X120540000Y-73720000D01*
X120540000Y-73720000D02*
X125840000Y-73720000D01*
X122190000Y-55820000D02*
X120540000Y-55820000D01*
X125840000Y-55820000D02*
X124190000Y-55820000D01*
X125840000Y-73720000D02*
X125840000Y-55820000D01*
X122190000Y-55820000D02*
G75*
G03*
X124190000Y-55820000I1000000J0D01*
G01*
%TO.C,U2*%
X146320000Y-55820000D02*
X144670000Y-55820000D01*
X149970000Y-55820000D02*
X148320000Y-55820000D01*
X149970000Y-73720000D02*
X149970000Y-55820000D01*
X144670000Y-55820000D02*
X144670000Y-73720000D01*
X144670000Y-73720000D02*
X149970000Y-73720000D01*
X146320000Y-55820000D02*
G75*
G03*
X148320000Y-55820000I1000000J0D01*
G01*
%TO.C,U3*%
X175370000Y-63440000D02*
X173720000Y-63440000D01*
X170070000Y-63440000D02*
X170070000Y-73720000D01*
X175370000Y-73720000D02*
X175370000Y-63440000D01*
X170070000Y-73720000D02*
X175370000Y-73720000D01*
X171720000Y-63440000D02*
X170070000Y-63440000D01*
X171720000Y-63440000D02*
G75*
G03*
X173720000Y-63440000I1000000J0D01*
G01*
%TO.C, *%
X142300000Y-58420000D02*
X142300000Y-73720000D01*
X142300000Y-55820000D02*
X142300000Y-57150000D01*
X139640000Y-58420000D02*
X142300000Y-58420000D01*
X140970000Y-55820000D02*
X142300000Y-55820000D01*
X139640000Y-58420000D02*
X139640000Y-73720000D01*
X139640000Y-73720000D02*
X142300000Y-73720000D01*
X152340000Y-73720000D02*
X155000000Y-73720000D01*
X155000000Y-55820000D02*
X155000000Y-57150000D01*
X155000000Y-58420000D02*
X155000000Y-73720000D01*
X152340000Y-58420000D02*
X152340000Y-73720000D01*
X153670000Y-55820000D02*
X155000000Y-55820000D01*
X152340000Y-58420000D02*
X155000000Y-58420000D01*
X167700000Y-66040000D02*
X167700000Y-73720000D01*
X165040000Y-66040000D02*
X167700000Y-66040000D01*
X165040000Y-66040000D02*
X165040000Y-73720000D01*
X165040000Y-73720000D02*
X167700000Y-73720000D01*
X167700000Y-63440000D02*
X167700000Y-64770000D01*
X166370000Y-63440000D02*
X167700000Y-63440000D01*
X181610000Y-76140000D02*
X182940000Y-76140000D01*
X182940000Y-78680000D02*
X182940000Y-78800000D01*
X180280000Y-78680000D02*
X180280000Y-78800000D01*
X180280000Y-78800000D02*
X182940000Y-78800000D01*
X182940000Y-76140000D02*
X182940000Y-77470000D01*
%TO.C,REF\u002A\u002A*%
X177740000Y-66040000D02*
X177740000Y-71180000D01*
X180400000Y-63440000D02*
X180400000Y-64770000D01*
X177740000Y-71180000D02*
X180400000Y-71180000D01*
X177740000Y-66040000D02*
X180400000Y-66040000D01*
X180400000Y-66040000D02*
X180400000Y-71180000D01*
X179070000Y-63440000D02*
X180400000Y-63440000D01*
%TO.C,RESET*%
X201410000Y-80320000D02*
X199910000Y-80320000D01*
X197410000Y-81570000D02*
X197410000Y-86070000D01*
X203910000Y-86070000D02*
X203910000Y-81570000D01*
X199910000Y-87320000D02*
X201410000Y-87320000D01*
%TO.C,LED*%
X183875000Y-87142000D02*
X186965000Y-87142000D01*
X186964830Y-87142000D02*
G75*
G03*
X185419538Y-81592000I-1544830J2560000D01*
G01*
X185420462Y-81592000D02*
G75*
G03*
X183875170Y-87142000I-462J-2990000D01*
G01*
X187920000Y-84582000D02*
G75*
G03*
X187920000Y-84582000I-2500000J0D01*
G01*
%TO.C,PIEZO*%
X210910000Y-71350000D02*
G75*
G03*
X210910000Y-68350001I-6400000J1500000D01*
G01*
X210740000Y-69850000D02*
G75*
G03*
X210740000Y-69850000I-6230000J0D01*
G01*
%TO.C,R (PIEZO)*%
X208434000Y-78518000D02*
X208434000Y-85058000D01*
X211174000Y-78518000D02*
X208434000Y-78518000D01*
X209804000Y-77748000D02*
X209804000Y-78518000D01*
X208434000Y-85058000D02*
X211174000Y-85058000D01*
X209804000Y-85828000D02*
X209804000Y-85058000D01*
X211174000Y-85058000D02*
X211174000Y-78518000D01*
%TO.C,R (LED)*%
X193770000Y-90270000D02*
X193770000Y-87530000D01*
X193770000Y-87530000D02*
X187230000Y-87530000D01*
X187230000Y-87530000D02*
X187230000Y-90270000D01*
X186460000Y-88900000D02*
X187230000Y-88900000D01*
X187230000Y-90270000D02*
X193770000Y-90270000D01*
X194540000Y-88900000D02*
X193770000Y-88900000D01*
%TO.C, *%
X165040000Y-58480000D02*
X167700000Y-58480000D01*
X165040000Y-58360000D02*
X165040000Y-58480000D01*
X166370000Y-55820000D02*
X167700000Y-55820000D01*
X167700000Y-58360000D02*
X167700000Y-58480000D01*
X167700000Y-55820000D02*
X167700000Y-57150000D01*
X151070000Y-53280000D02*
X151070000Y-53400000D01*
X151070000Y-53400000D02*
X153730000Y-53400000D01*
X152400000Y-50740000D02*
X153730000Y-50740000D01*
X153730000Y-53280000D02*
X153730000Y-53400000D01*
X153730000Y-50740000D02*
X153730000Y-52070000D01*
X138430000Y-55820000D02*
X139760000Y-55820000D01*
X137100000Y-58360000D02*
X137100000Y-58480000D01*
X139760000Y-55820000D02*
X139760000Y-57150000D01*
X137100000Y-58480000D02*
X139760000Y-58480000D01*
X139760000Y-58360000D02*
X139760000Y-58480000D01*
X165160000Y-68520000D02*
X165160000Y-68640000D01*
X162500000Y-68640000D02*
X165160000Y-68640000D01*
X163830000Y-65980000D02*
X165160000Y-65980000D01*
X162500000Y-68520000D02*
X162500000Y-68640000D01*
X165160000Y-65980000D02*
X165160000Y-67310000D01*
X165160000Y-65980000D02*
X165160000Y-66100000D01*
X162500000Y-66100000D02*
X165160000Y-66100000D01*
X165160000Y-63440000D02*
X165160000Y-64770000D01*
X162500000Y-65980000D02*
X162500000Y-66100000D01*
X163830000Y-63440000D02*
X165160000Y-63440000D01*
X166370000Y-76140000D02*
X167700000Y-76140000D01*
X165040000Y-78680000D02*
X165040000Y-78800000D01*
X165040000Y-78800000D02*
X167700000Y-78800000D01*
X167700000Y-78680000D02*
X167700000Y-78800000D01*
X167700000Y-76140000D02*
X167700000Y-77470000D01*
X130870000Y-60900000D02*
X130870000Y-61020000D01*
X128210000Y-61020000D02*
X130870000Y-61020000D01*
X130870000Y-58360000D02*
X130870000Y-59690000D01*
X129540000Y-58360000D02*
X130870000Y-58360000D01*
X128210000Y-60900000D02*
X128210000Y-61020000D01*
X163890000Y-46930000D02*
X163890000Y-48260000D01*
X161230000Y-49590000D02*
X163890000Y-49590000D01*
X162560000Y-46930000D02*
X163890000Y-46930000D01*
X163890000Y-49470000D02*
X163890000Y-49590000D01*
X161230000Y-49470000D02*
X161230000Y-49590000D01*
X167700000Y-59630000D02*
X167700000Y-60960000D01*
X165040000Y-62170000D02*
X165040000Y-62290000D01*
X166370000Y-59630000D02*
X167700000Y-59630000D01*
X167700000Y-62170000D02*
X167700000Y-62290000D01*
X165040000Y-62290000D02*
X167700000Y-62290000D01*
X136966000Y-76140000D02*
X136966000Y-77470000D01*
X134306000Y-78680000D02*
X134306000Y-78800000D01*
X136966000Y-78680000D02*
X136966000Y-78800000D01*
X134306000Y-78800000D02*
X136966000Y-78800000D01*
X135636000Y-76140000D02*
X136966000Y-76140000D01*
X137100000Y-61020000D02*
X139760000Y-61020000D01*
X139760000Y-58360000D02*
X139760000Y-59690000D01*
X138430000Y-58360000D02*
X139760000Y-58360000D01*
X137100000Y-60900000D02*
X137100000Y-61020000D01*
X139760000Y-60900000D02*
X139760000Y-61020000D01*
X129540000Y-63440000D02*
X130870000Y-63440000D01*
X128210000Y-65980000D02*
X128210000Y-66100000D01*
X130870000Y-63440000D02*
X130870000Y-64770000D01*
X130870000Y-65980000D02*
X130870000Y-66100000D01*
X128210000Y-66100000D02*
X130870000Y-66100000D01*
X180280000Y-58480000D02*
X182940000Y-58480000D01*
X182940000Y-58360000D02*
X182940000Y-58480000D01*
X180280000Y-58360000D02*
X180280000Y-58480000D01*
X182940000Y-55820000D02*
X182940000Y-57150000D01*
X181610000Y-55820000D02*
X182940000Y-55820000D01*
X130870000Y-55820000D02*
X130870000Y-57150000D01*
X130870000Y-58360000D02*
X130870000Y-58480000D01*
X128210000Y-58480000D02*
X130870000Y-58480000D01*
X129540000Y-55820000D02*
X130870000Y-55820000D01*
X128210000Y-58360000D02*
X128210000Y-58480000D01*
X120590000Y-53400000D02*
X123250000Y-53400000D01*
X123250000Y-53280000D02*
X123250000Y-53400000D01*
X121920000Y-50740000D02*
X123250000Y-50740000D01*
X120590000Y-53280000D02*
X120590000Y-53400000D01*
X123250000Y-50740000D02*
X123250000Y-52070000D01*
X115510000Y-61020000D02*
X118170000Y-61020000D01*
X116840000Y-58360000D02*
X118170000Y-58360000D01*
X118170000Y-60900000D02*
X118170000Y-61020000D01*
X115510000Y-60900000D02*
X115510000Y-61020000D01*
X118170000Y-58360000D02*
X118170000Y-59690000D01*
X162560000Y-81220000D02*
X163890000Y-81220000D01*
X163890000Y-81220000D02*
X163890000Y-82550000D01*
X163890000Y-83760000D02*
X163890000Y-83880000D01*
X161230000Y-83760000D02*
X161230000Y-83880000D01*
X161230000Y-83880000D02*
X163890000Y-83880000D01*
X118170000Y-58360000D02*
X118170000Y-58480000D01*
X116840000Y-55820000D02*
X118170000Y-55820000D01*
X118170000Y-55820000D02*
X118170000Y-57150000D01*
X115510000Y-58360000D02*
X115510000Y-58480000D01*
X115510000Y-58480000D02*
X118170000Y-58480000D01*
X180280000Y-62170000D02*
X180280000Y-62290000D01*
X180280000Y-62290000D02*
X182940000Y-62290000D01*
X181610000Y-59630000D02*
X182940000Y-59630000D01*
X182940000Y-59630000D02*
X182940000Y-60960000D01*
X182940000Y-62170000D02*
X182940000Y-62290000D01*
%TO.C,REF\u002A\u002A*%
X206124000Y-50760000D02*
X209719000Y-50760000D01*
X199678000Y-61000000D02*
X199678000Y-50760000D01*
X199678000Y-50760000D02*
X203274000Y-50760000D01*
X199678000Y-61000000D02*
X200773000Y-61000000D01*
X203625000Y-61000000D02*
X205774000Y-61000000D01*
X208624000Y-61000000D02*
X209719000Y-61000000D01*
X209719000Y-61000000D02*
X209719000Y-50760000D01*
%TO.C, *%
X119066000Y-78680000D02*
X119066000Y-78800000D01*
X120396000Y-76140000D02*
X121726000Y-76140000D01*
X121726000Y-78680000D02*
X121726000Y-78800000D01*
X121726000Y-76140000D02*
X121726000Y-77470000D01*
X119066000Y-78800000D02*
X121726000Y-78800000D01*
X128210000Y-73600000D02*
X128210000Y-73720000D01*
X128210000Y-73720000D02*
X130870000Y-73720000D01*
X129540000Y-71060000D02*
X130870000Y-71060000D01*
X130870000Y-73600000D02*
X130870000Y-73720000D01*
X130870000Y-71060000D02*
X130870000Y-72390000D01*
X118170000Y-68520000D02*
X118170000Y-69850000D01*
X116840000Y-68520000D02*
X118170000Y-68520000D01*
X115510000Y-71060000D02*
X115510000Y-71180000D01*
X118170000Y-71060000D02*
X118170000Y-71180000D01*
X115510000Y-71180000D02*
X118170000Y-71180000D01*
X166310000Y-53400000D02*
X168970000Y-53400000D01*
X168970000Y-50740000D02*
X168970000Y-52070000D01*
X166310000Y-53280000D02*
X166310000Y-53400000D01*
X168970000Y-53280000D02*
X168970000Y-53400000D01*
X167640000Y-50740000D02*
X168970000Y-50740000D01*
X137160000Y-50740000D02*
X138490000Y-50740000D01*
X135830000Y-53280000D02*
X135830000Y-53400000D01*
X138490000Y-50740000D02*
X138490000Y-52070000D01*
X135830000Y-53400000D02*
X138490000Y-53400000D01*
X138490000Y-53280000D02*
X138490000Y-53400000D01*
X139640000Y-80578000D02*
X142300000Y-80578000D01*
X142300000Y-80458000D02*
X142300000Y-80578000D01*
X140970000Y-77918000D02*
X142300000Y-77918000D01*
X139640000Y-80458000D02*
X139640000Y-80578000D01*
X142300000Y-77918000D02*
X142300000Y-79248000D01*
X156150000Y-83760000D02*
X156150000Y-83880000D01*
X158810000Y-81220000D02*
X158810000Y-82550000D01*
X157480000Y-81220000D02*
X158810000Y-81220000D01*
X158810000Y-83760000D02*
X158810000Y-83880000D01*
X156150000Y-83880000D02*
X158810000Y-83880000D01*
X157540000Y-77918000D02*
X157540000Y-79248000D01*
X156210000Y-77918000D02*
X157540000Y-77918000D01*
X154880000Y-80578000D02*
X157540000Y-80578000D01*
X154880000Y-80458000D02*
X154880000Y-80578000D01*
X157540000Y-80458000D02*
X157540000Y-80578000D01*
X115510000Y-73720000D02*
X118170000Y-73720000D01*
X115510000Y-73600000D02*
X115510000Y-73720000D01*
X116840000Y-71060000D02*
X118170000Y-71060000D01*
X118170000Y-73600000D02*
X118170000Y-73720000D01*
X118170000Y-71060000D02*
X118170000Y-72390000D01*
X161350000Y-83760000D02*
X161350000Y-83880000D01*
X158690000Y-83880000D02*
X161350000Y-83880000D01*
X158690000Y-83760000D02*
X158690000Y-83880000D01*
X161350000Y-81220000D02*
X161350000Y-82550000D01*
X160020000Y-81220000D02*
X161350000Y-81220000D01*
X160020000Y-46930000D02*
X161350000Y-46930000D01*
X161350000Y-49470000D02*
X161350000Y-49590000D01*
X158690000Y-49590000D02*
X161350000Y-49590000D01*
X158690000Y-49470000D02*
X158690000Y-49590000D01*
X161350000Y-46930000D02*
X161350000Y-48260000D01*
%TD*%
M02*
