%TF.GenerationSoftware,KiCad,Pcbnew,(6.0.5)*%
%TF.CreationDate,2022-06-11T21:03:46+02:00*%
%TF.ProjectId,bomba-robotabor,626f6d62-612d-4726-9f62-6f7461626f72,rev?*%
%TF.SameCoordinates,Original*%
%TF.FileFunction,Legend,Bot*%
%TF.FilePolarity,Positive*%
%FSLAX46Y46*%
G04 Gerber Fmt 4.6, Leading zero omitted, Abs format (unit mm)*
G04 Created by KiCad (PCBNEW (6.0.5)) date 2022-06-11 21:03:46*
%MOMM*%
%LPD*%
G01*
G04 APERTURE LIST*
%ADD10C,0.120000*%
%ADD11C,0.150000*%
G04 APERTURE END LIST*
D10*
X195072000Y-45720000D02*
X194564000Y-45720000D01*
X195072000Y-45720000D02*
X194056000Y-45212000D01*
X195072000Y-45720000D02*
X194056000Y-46228000D01*
X191008000Y-45720000D02*
X194564000Y-45720000D01*
D11*
X194516190Y-44045142D02*
X194563809Y-44092761D01*
X194706666Y-44140380D01*
X194801904Y-44140380D01*
X194944761Y-44092761D01*
X195040000Y-43997523D01*
X195087619Y-43902285D01*
X195135238Y-43711809D01*
X195135238Y-43568952D01*
X195087619Y-43378476D01*
X195040000Y-43283238D01*
X194944761Y-43188000D01*
X194801904Y-43140380D01*
X194706666Y-43140380D01*
X194563809Y-43188000D01*
X194516190Y-43235619D01*
X194135238Y-43854666D02*
X193659047Y-43854666D01*
X194230476Y-44140380D02*
X193897142Y-43140380D01*
X193563809Y-44140380D01*
X192897142Y-43616571D02*
X192754285Y-43664190D01*
X192706666Y-43711809D01*
X192659047Y-43807047D01*
X192659047Y-43949904D01*
X192706666Y-44045142D01*
X192754285Y-44092761D01*
X192849523Y-44140380D01*
X193230476Y-44140380D01*
X193230476Y-43140380D01*
X192897142Y-43140380D01*
X192801904Y-43188000D01*
X192754285Y-43235619D01*
X192706666Y-43330857D01*
X192706666Y-43426095D01*
X192754285Y-43521333D01*
X192801904Y-43568952D01*
X192897142Y-43616571D01*
X193230476Y-43616571D01*
X191754285Y-44140380D02*
X192230476Y-44140380D01*
X192230476Y-43140380D01*
X191420952Y-43616571D02*
X191087619Y-43616571D01*
X190944761Y-44140380D02*
X191420952Y-44140380D01*
X191420952Y-43140380D01*
X190944761Y-43140380D01*
D10*
%TO.C,REF\u002A\u002A*%
X193040000Y-85150000D02*
X195640000Y-85150000D01*
X190440000Y-83820000D02*
X190440000Y-85150000D01*
X190440000Y-46930000D02*
X195640000Y-46930000D01*
X190440000Y-82550000D02*
X190440000Y-46930000D01*
X190440000Y-85150000D02*
X191770000Y-85150000D01*
X195640000Y-85150000D02*
X195640000Y-46930000D01*
X190440000Y-82550000D02*
X193040000Y-82550000D01*
X193040000Y-82550000D02*
X193040000Y-85150000D01*
%TD*%
M02*
