%TF.GenerationSoftware,KiCad,Pcbnew,(6.0.5)*%
%TF.CreationDate,2022-06-11T21:03:45+02:00*%
%TF.ProjectId,bomba-robotabor,626f6d62-612d-4726-9f62-6f7461626f72,rev?*%
%TF.SameCoordinates,Original*%
%TF.FileFunction,Copper,L2,Bot*%
%TF.FilePolarity,Positive*%
%FSLAX46Y46*%
G04 Gerber Fmt 4.6, Leading zero omitted, Abs format (unit mm)*
G04 Created by KiCad (PCBNEW (6.0.5)) date 2022-06-11 21:03:45*
%MOMM*%
%LPD*%
G01*
G04 APERTURE LIST*
%TA.AperFunction,ComponentPad*%
%ADD10C,1.600000*%
%TD*%
%TA.AperFunction,ComponentPad*%
%ADD11O,1.600000X1.600000*%
%TD*%
%TA.AperFunction,ComponentPad*%
%ADD12R,1.600000X1.600000*%
%TD*%
%TA.AperFunction,ComponentPad*%
%ADD13R,1.700000X1.700000*%
%TD*%
%TA.AperFunction,ComponentPad*%
%ADD14O,1.700000X1.700000*%
%TD*%
%TA.AperFunction,ComponentPad*%
%ADD15C,2.000000*%
%TD*%
%TA.AperFunction,ComponentPad*%
%ADD16R,1.800000X1.800000*%
%TD*%
%TA.AperFunction,ComponentPad*%
%ADD17C,1.800000*%
%TD*%
%TA.AperFunction,ComponentPad*%
%ADD18R,2.000000X2.000000*%
%TD*%
%TA.AperFunction,ComponentPad*%
%ADD19C,2.340000*%
%TD*%
%TA.AperFunction,Conductor*%
%ADD20C,0.200000*%
%TD*%
G04 APERTURE END LIST*
D10*
%TO.P,R1,1*%
%TO.N,Net-(R1-Pad1)*%
X165100000Y-52070000D03*
D11*
%TO.P,R1,2*%
%TO.N,Net-(R1-Pad2)*%
X154940000Y-52070000D03*
%TD*%
D10*
%TO.P,R2,1*%
%TO.N,Net-(R2-Pad1)*%
X124460000Y-52070000D03*
D11*
%TO.P,R2,2*%
%TO.N,Net-(R2-Pad2)*%
X134620000Y-52070000D03*
%TD*%
D10*
%TO.P,R3,1*%
%TO.N,Net-(R3-Pad1)*%
X153670000Y-79248000D03*
D11*
%TO.P,R3,2*%
%TO.N,Net-(R3-Pad2)*%
X143510000Y-79248000D03*
%TD*%
D10*
%TO.P,R4,1*%
%TO.N,Net-(R4-Pad1)*%
X179070000Y-57150000D03*
D11*
%TO.P,R4,2*%
%TO.N,Net-(R4-Pad2)*%
X168910000Y-57150000D03*
%TD*%
D10*
%TO.P,R5,1*%
%TO.N,Net-(R5-Pad1)*%
X179070000Y-77470000D03*
D11*
%TO.P,R5,2*%
%TO.N,Net-(R5-Pad2)*%
X168910000Y-77470000D03*
%TD*%
D10*
%TO.P,R6,1*%
%TO.N,Net-(R3-Pad1)*%
X133096000Y-77470000D03*
D11*
%TO.P,R6,2*%
%TO.N,Net-(R6-Pad2)*%
X122936000Y-77470000D03*
%TD*%
D10*
%TO.P,R7,1*%
%TO.N,Net-(R7-Pad1)*%
X179070000Y-60960000D03*
D11*
%TO.P,R7,2*%
%TO.N,Net-(R7-Pad2)*%
X168910000Y-60960000D03*
%TD*%
D12*
%TO.P,U1,1*%
%TO.N,Net-(R1-Pad2)*%
X119380000Y-57150000D03*
D11*
%TO.P,U1,2*%
%TO.N,Net-(U1-Pad2)*%
X119380000Y-59690000D03*
%TO.P,U1,3*%
%TO.N,Net-(U1-Pad3)*%
X119380000Y-62230000D03*
%TO.P,U1,4*%
%TO.N,Net-(U1-Pad4)*%
X119380000Y-64770000D03*
%TO.P,U1,5*%
%TO.N,Net-(U1-Pad5)*%
X119380000Y-67310000D03*
%TO.P,U1,6*%
%TO.N,Net-(U1-Pad2)*%
X119380000Y-69850000D03*
%TO.P,U1,7*%
%TO.N,GND*%
X119380000Y-72390000D03*
%TO.P,U1,8*%
%TO.N,Net-(R1-Pad1)*%
X127000000Y-72390000D03*
%TO.P,U1,9*%
%TO.N,Net-(U1-Pad9)*%
X127000000Y-69850000D03*
%TO.P,U1,10*%
%TO.N,Net-(U1-Pad10)*%
X127000000Y-67310000D03*
%TO.P,U1,11*%
%TO.N,Net-(U1-Pad11)*%
X127000000Y-64770000D03*
%TO.P,U1,12*%
%TO.N,Net-(U1-Pad12)*%
X127000000Y-62230000D03*
%TO.P,U1,13*%
%TO.N,Net-(R2-Pad1)*%
X127000000Y-59690000D03*
%TO.P,U1,14*%
%TO.N,+5V*%
X127000000Y-57150000D03*
%TD*%
D12*
%TO.P,U2,1*%
%TO.N,Net-(U1-Pad2)*%
X143510000Y-57150000D03*
D11*
%TO.P,U2,2*%
%TO.N,Net-(R1-Pad1)*%
X143510000Y-59690000D03*
%TO.P,U2,3*%
%TO.N,Net-(R2-Pad2)*%
X143510000Y-62230000D03*
%TO.P,U2,4*%
%TO.N,Net-(U1-Pad11)*%
X143510000Y-64770000D03*
%TO.P,U2,5*%
%TO.N,Net-(U2-Pad5)*%
X143510000Y-67310000D03*
%TO.P,U2,6*%
%TO.N,Net-(R6-Pad2)*%
X143510000Y-69850000D03*
%TO.P,U2,7*%
%TO.N,GND*%
X143510000Y-72390000D03*
%TO.P,U2,8*%
%TO.N,Net-(U2-Pad5)*%
X151130000Y-72390000D03*
%TO.P,U2,9*%
%TO.N,Net-(U2-Pad9)*%
X151130000Y-69850000D03*
%TO.P,U2,10*%
%TO.N,Net-(R7-Pad2)*%
X151130000Y-67310000D03*
%TO.P,U2,11*%
%TO.N,Net-(R3-Pad2)*%
X151130000Y-64770000D03*
%TO.P,U2,12*%
%TO.N,Net-(R4-Pad2)*%
X151130000Y-62230000D03*
%TO.P,U2,13*%
%TO.N,Net-(R5-Pad2)*%
X151130000Y-59690000D03*
%TO.P,U2,14*%
%TO.N,+5V*%
X151130000Y-57150000D03*
%TD*%
D12*
%TO.P,U3,1*%
%TO.N,Net-(U2-Pad5)*%
X168910000Y-64770000D03*
D11*
%TO.P,U3,2*%
%TO.N,Net-(R3-Pad1)*%
X168910000Y-67310000D03*
%TO.P,U3,3*%
%TO.N,Net-(R4-Pad1)*%
X168910000Y-69850000D03*
%TO.P,U3,4*%
%TO.N,GND*%
X168910000Y-72390000D03*
%TO.P,U3,5*%
%TO.N,N/C*%
X176530000Y-72390000D03*
%TO.P,U3,6*%
%TO.N,Net-(R5-Pad1)*%
X176530000Y-69850000D03*
%TO.P,U3,7*%
%TO.N,Net-(U2-Pad9)*%
X176530000Y-67310000D03*
%TO.P,U3,8*%
%TO.N,Net-(R7-Pad1)*%
X176530000Y-64770000D03*
%TD*%
D13*
%TO.P, ,1*%
%TO.N,N/C*%
X140970000Y-57150000D03*
D14*
%TO.P, ,2*%
X140970000Y-59690000D03*
%TO.P, ,3*%
X140970000Y-62230000D03*
%TO.P, ,4*%
X140970000Y-64770000D03*
%TO.P, ,5*%
X140970000Y-67310000D03*
%TO.P, ,6*%
X140970000Y-69850000D03*
%TO.P, ,7*%
X140970000Y-72390000D03*
%TD*%
D13*
%TO.P, ,1*%
%TO.N,N/C*%
X153670000Y-57150000D03*
D14*
%TO.P, ,2*%
X153670000Y-59690000D03*
%TO.P, ,3*%
X153670000Y-62230000D03*
%TO.P, ,4*%
X153670000Y-64770000D03*
%TO.P, ,5*%
X153670000Y-67310000D03*
%TO.P, ,6*%
X153670000Y-69850000D03*
%TO.P, ,7*%
X153670000Y-72390000D03*
%TD*%
D13*
%TO.P, ,1*%
%TO.N,N/C*%
X166370000Y-64770000D03*
D14*
%TO.P, ,2*%
X166370000Y-67310000D03*
%TO.P, ,3*%
X166370000Y-69850000D03*
%TO.P, ,4*%
X166370000Y-72390000D03*
%TD*%
D13*
%TO.P, ,1*%
%TO.N,N/C*%
X181610000Y-77470000D03*
%TD*%
%TO.P,REF\u002A\u002A,1*%
%TO.N,N/C*%
X179070000Y-64770000D03*
D14*
%TO.P,REF\u002A\u002A,2*%
X179070000Y-67310000D03*
%TO.P,REF\u002A\u002A,3*%
X179070000Y-69850000D03*
%TD*%
D15*
%TO.P,RESET,1*%
%TO.N,N/C*%
X202910000Y-80570000D03*
X202910000Y-87070000D03*
%TO.P,RESET,2*%
X198410000Y-80570000D03*
X198410000Y-87070000D03*
%TD*%
D16*
%TO.P,LED,1*%
%TO.N,N/C*%
X185420000Y-85852000D03*
D17*
%TO.P,LED,2*%
X185420000Y-83312000D03*
%TD*%
D18*
%TO.P,PIEZO,1*%
%TO.N,N/C*%
X207010000Y-69850000D03*
D15*
%TO.P,PIEZO,2*%
X202010000Y-69850000D03*
%TD*%
D10*
%TO.P,R (PIEZO),1*%
%TO.N,N/C*%
X209804000Y-86868000D03*
D11*
%TO.P,R (PIEZO),2*%
X209804000Y-76708000D03*
%TD*%
D10*
%TO.P,R (LED),1*%
%TO.N,N/C*%
X195580000Y-88900000D03*
D11*
%TO.P,R (LED),2*%
X185420000Y-88900000D03*
%TD*%
D13*
%TO.P, ,1*%
%TO.N,N/C*%
X166370000Y-57150000D03*
%TD*%
%TO.P, ,1*%
%TO.N,N/C*%
X152400000Y-52070000D03*
%TD*%
%TO.P, ,1*%
%TO.N,N/C*%
X138430000Y-57150000D03*
%TD*%
%TO.P, ,1*%
%TO.N,N/C*%
X163830000Y-67310000D03*
%TD*%
%TO.P, ,1*%
%TO.N,N/C*%
X163830000Y-64770000D03*
%TD*%
%TO.P, ,1*%
%TO.N,N/C*%
X166370000Y-77470000D03*
%TD*%
%TO.P, ,1*%
%TO.N,N/C*%
X129540000Y-59690000D03*
%TD*%
%TO.P, ,1*%
%TO.N,N/C*%
X162560000Y-48260000D03*
%TD*%
%TO.P, ,1*%
%TO.N,N/C*%
X166370000Y-60960000D03*
%TD*%
%TO.P, ,1*%
%TO.N,N/C*%
X135636000Y-77470000D03*
%TD*%
%TO.P, ,1*%
%TO.N,N/C*%
X138430000Y-59690000D03*
%TD*%
%TO.P, ,1*%
%TO.N,N/C*%
X129540000Y-64770000D03*
%TD*%
%TO.P, ,1*%
%TO.N,N/C*%
X181610000Y-57150000D03*
%TD*%
%TO.P, ,1*%
%TO.N,N/C*%
X129540000Y-57150000D03*
%TD*%
%TO.P, ,1*%
%TO.N,N/C*%
X121920000Y-52070000D03*
%TD*%
%TO.P, ,1*%
%TO.N,N/C*%
X116840000Y-59690000D03*
%TD*%
%TO.P, ,1*%
%TO.N,N/C*%
X162560000Y-82550000D03*
%TD*%
%TO.P, ,1*%
%TO.N,N/C*%
X116840000Y-57150000D03*
%TD*%
%TO.P, ,1*%
%TO.N,N/C*%
X181610000Y-60960000D03*
%TD*%
D19*
%TO.P,REF\u002A\u002A,1*%
%TO.N,N/C*%
X207199000Y-60880000D03*
%TO.P,REF\u002A\u002A,2*%
X204699000Y-50880000D03*
%TO.P,REF\u002A\u002A,3*%
X202199000Y-60880000D03*
%TD*%
D13*
%TO.P, ,1*%
%TO.N,N/C*%
X120396000Y-77470000D03*
%TD*%
%TO.P, ,1*%
%TO.N,N/C*%
X129540000Y-72390000D03*
%TD*%
%TO.P, ,1*%
%TO.N,N/C*%
X116840000Y-69850000D03*
%TD*%
%TO.P, ,1*%
%TO.N,N/C*%
X167640000Y-52070000D03*
%TD*%
%TO.P, ,1*%
%TO.N,N/C*%
X137160000Y-52070000D03*
%TD*%
%TO.P, ,1*%
%TO.N,N/C*%
X140970000Y-79248000D03*
%TD*%
%TO.P, ,1*%
%TO.N,N/C*%
X157480000Y-82550000D03*
%TD*%
%TO.P, ,1*%
%TO.N,N/C*%
X156210000Y-79248000D03*
%TD*%
%TO.P, ,1*%
%TO.N,N/C*%
X116840000Y-72390000D03*
%TD*%
%TO.P, ,1*%
%TO.N,N/C*%
X160020000Y-82550000D03*
%TD*%
%TO.P, ,1*%
%TO.N,N/C*%
X160020000Y-48260000D03*
%TD*%
%TO.P,REF\u002A\u002A,1*%
%TO.N,N/C*%
X191770000Y-83820000D03*
D14*
%TO.P,REF\u002A\u002A,2*%
X194310000Y-83820000D03*
%TO.P,REF\u002A\u002A,3*%
X191770000Y-81280000D03*
%TO.P,REF\u002A\u002A,4*%
X194310000Y-81280000D03*
%TO.P,REF\u002A\u002A,5*%
X191770000Y-78740000D03*
%TO.P,REF\u002A\u002A,6*%
X194310000Y-78740000D03*
%TO.P,REF\u002A\u002A,7*%
X191770000Y-76200000D03*
%TO.P,REF\u002A\u002A,8*%
X194310000Y-76200000D03*
%TO.P,REF\u002A\u002A,9*%
X191770000Y-73660000D03*
%TO.P,REF\u002A\u002A,10*%
X194310000Y-73660000D03*
%TO.P,REF\u002A\u002A,11*%
X191770000Y-71120000D03*
%TO.P,REF\u002A\u002A,12*%
X194310000Y-71120000D03*
%TO.P,REF\u002A\u002A,13*%
X191770000Y-68580000D03*
%TO.P,REF\u002A\u002A,14*%
X194310000Y-68580000D03*
%TO.P,REF\u002A\u002A,15*%
X191770000Y-66040000D03*
%TO.P,REF\u002A\u002A,16*%
X194310000Y-66040000D03*
%TO.P,REF\u002A\u002A,17*%
X191770000Y-63500000D03*
%TO.P,REF\u002A\u002A,18*%
X194310000Y-63500000D03*
%TO.P,REF\u002A\u002A,19*%
X191770000Y-60960000D03*
%TO.P,REF\u002A\u002A,20*%
X194310000Y-60960000D03*
%TO.P,REF\u002A\u002A,21*%
X191770000Y-58420000D03*
%TO.P,REF\u002A\u002A,22*%
X194310000Y-58420000D03*
%TO.P,REF\u002A\u002A,23*%
X191770000Y-55880000D03*
%TO.P,REF\u002A\u002A,24*%
X194310000Y-55880000D03*
%TO.P,REF\u002A\u002A,25*%
X191770000Y-53340000D03*
%TO.P,REF\u002A\u002A,26*%
X194310000Y-53340000D03*
%TO.P,REF\u002A\u002A,27*%
X191770000Y-50800000D03*
%TO.P,REF\u002A\u002A,28*%
X194310000Y-50800000D03*
%TO.P,REF\u002A\u002A,29*%
X191770000Y-48260000D03*
%TO.P,REF\u002A\u002A,30*%
X194310000Y-48260000D03*
%TD*%
D20*
%TO.N,*%
X165100000Y-59690000D02*
X165100000Y-55880000D01*
X165100000Y-62992000D02*
X162560000Y-60452000D01*
X142748000Y-53340000D02*
X160020000Y-53340000D01*
X173228000Y-66040000D02*
X170180000Y-62992000D01*
X194310000Y-46990000D02*
X194310000Y-48260000D01*
X140716000Y-44704000D02*
X193548000Y-44704000D01*
X179070000Y-67310000D02*
X177800000Y-66040000D01*
X188214000Y-54864000D02*
X190500000Y-57150000D01*
X166116000Y-54864000D02*
X188214000Y-54864000D01*
X142410489Y-60789511D02*
X142410489Y-53677511D01*
X165100000Y-55880000D02*
X166116000Y-54864000D01*
X140970000Y-62230000D02*
X142410489Y-60789511D01*
X190500000Y-52070000D02*
X193040000Y-52070000D01*
X187706000Y-49276000D02*
X190500000Y-52070000D01*
X186690000Y-50800000D02*
X190500000Y-54610000D01*
X135890000Y-59690000D02*
X138430000Y-57150000D01*
X139700000Y-45720000D02*
X140716000Y-44704000D01*
X157192000Y-46228000D02*
X193548000Y-46228000D01*
X195580000Y-49530000D02*
X194310000Y-50800000D01*
X164084000Y-49276000D02*
X187706000Y-49276000D01*
X152400000Y-52070000D02*
X152400000Y-51020000D01*
X193548000Y-44704000D02*
X195580000Y-46736000D01*
X177800000Y-66040000D02*
X173228000Y-66040000D01*
X140970000Y-64770000D02*
X139700000Y-63500000D01*
X193548000Y-46228000D02*
X194310000Y-46990000D01*
X193040000Y-57150000D02*
X194310000Y-58420000D01*
X164084000Y-50800000D02*
X186690000Y-50800000D01*
X152400000Y-51020000D02*
X157192000Y-46228000D01*
X190500000Y-54610000D02*
X193040000Y-54610000D01*
X170180000Y-62992000D02*
X165100000Y-62992000D01*
X162560000Y-50800000D02*
X164084000Y-49276000D01*
X142410489Y-53677511D02*
X142748000Y-53340000D01*
X162560000Y-52324000D02*
X164084000Y-50800000D01*
X193040000Y-52070000D02*
X194310000Y-53340000D01*
X193040000Y-54610000D02*
X194310000Y-55880000D01*
X195580000Y-46736000D02*
X195580000Y-49530000D01*
X139700000Y-63500000D02*
X139700000Y-45720000D01*
X160020000Y-53340000D02*
X162560000Y-50800000D01*
X129540000Y-59690000D02*
X135890000Y-59690000D01*
X162560000Y-60452000D02*
X162560000Y-52324000D01*
X190500000Y-57150000D02*
X193040000Y-57150000D01*
X166370000Y-60960000D02*
X165100000Y-59690000D01*
%TD*%
M02*
