%TF.GenerationSoftware,KiCad,Pcbnew,(6.0.5)*%
%TF.CreationDate,2022-06-20T20:36:39+02:00*%
%TF.ProjectId,bomba-robotabor,626f6d62-612d-4726-9f62-6f7461626f72,rev?*%
%TF.SameCoordinates,Original*%
%TF.FileFunction,Copper,L2,Bot*%
%TF.FilePolarity,Positive*%
%FSLAX46Y46*%
G04 Gerber Fmt 4.6, Leading zero omitted, Abs format (unit mm)*
G04 Created by KiCad (PCBNEW (6.0.5)) date 2022-06-20 20:36:39*
%MOMM*%
%LPD*%
G01*
G04 APERTURE LIST*
%TA.AperFunction,ComponentPad*%
%ADD10C,1.600000*%
%TD*%
%TA.AperFunction,ComponentPad*%
%ADD11O,1.600000X1.600000*%
%TD*%
%TA.AperFunction,ComponentPad*%
%ADD12R,1.600000X1.600000*%
%TD*%
%TA.AperFunction,ComponentPad*%
%ADD13C,1.700000*%
%TD*%
%TA.AperFunction,ComponentPad*%
%ADD14O,1.700000X1.700000*%
%TD*%
%TA.AperFunction,ComponentPad*%
%ADD15C,2.000000*%
%TD*%
%TA.AperFunction,ComponentPad*%
%ADD16R,1.800000X1.800000*%
%TD*%
%TA.AperFunction,ComponentPad*%
%ADD17C,1.800000*%
%TD*%
%TA.AperFunction,ComponentPad*%
%ADD18R,2.000000X2.000000*%
%TD*%
%TA.AperFunction,ComponentPad*%
%ADD19R,1.700000X1.700000*%
%TD*%
%TA.AperFunction,Conductor*%
%ADD20C,0.200000*%
%TD*%
%TA.AperFunction,Conductor*%
%ADD21C,0.250000*%
%TD*%
G04 APERTURE END LIST*
D10*
%TO.P,R1,1*%
%TO.N,Net-(R1-Pad1)*%
X165100000Y-52070000D03*
D11*
%TO.P,R1,2*%
%TO.N,Net-(R1-Pad2)*%
X154940000Y-52070000D03*
%TD*%
D10*
%TO.P,R2,1*%
%TO.N,Net-(R2-Pad1)*%
X124460000Y-52070000D03*
D11*
%TO.P,R2,2*%
%TO.N,Net-(R2-Pad2)*%
X134620000Y-52070000D03*
%TD*%
D10*
%TO.P,R3,1*%
%TO.N,Net-(R3-Pad1)*%
X153670000Y-79248000D03*
D11*
%TO.P,R3,2*%
%TO.N,Net-(R3-Pad2)*%
X143510000Y-79248000D03*
%TD*%
D10*
%TO.P,R4,1*%
%TO.N,Net-(R4-Pad1)*%
X179070000Y-57150000D03*
D11*
%TO.P,R4,2*%
%TO.N,Net-(R4-Pad2)*%
X168910000Y-57150000D03*
%TD*%
D10*
%TO.P,R5,1*%
%TO.N,Net-(R5-Pad1)*%
X179070000Y-77470000D03*
D11*
%TO.P,R5,2*%
%TO.N,Net-(R5-Pad2)*%
X168910000Y-77470000D03*
%TD*%
D10*
%TO.P,R6,1*%
%TO.N,Net-(R3-Pad1)*%
X133096000Y-77470000D03*
D11*
%TO.P,R6,2*%
%TO.N,Net-(R6-Pad2)*%
X122936000Y-77470000D03*
%TD*%
D10*
%TO.P,R7,1*%
%TO.N,Net-(R7-Pad1)*%
X179070000Y-60960000D03*
D11*
%TO.P,R7,2*%
%TO.N,Net-(R7-Pad2)*%
X168910000Y-60960000D03*
%TD*%
D12*
%TO.P,U1,1*%
%TO.N,Net-(R1-Pad2)*%
X119380000Y-57150000D03*
D11*
%TO.P,U1,2*%
%TO.N,Net-(U1-Pad2)*%
X119380000Y-59690000D03*
%TO.P,U1,3*%
%TO.N,Net-(U1-Pad3)*%
X119380000Y-62230000D03*
%TO.P,U1,4*%
%TO.N,Net-(U1-Pad4)*%
X119380000Y-64770000D03*
%TO.P,U1,5*%
%TO.N,Net-(U1-Pad5)*%
X119380000Y-67310000D03*
%TO.P,U1,6*%
%TO.N,Net-(U1-Pad2)*%
X119380000Y-69850000D03*
%TO.P,U1,7*%
%TO.N,GND*%
X119380000Y-72390000D03*
%TO.P,U1,8*%
%TO.N,Net-(R1-Pad1)*%
X127000000Y-72390000D03*
%TO.P,U1,9*%
%TO.N,Net-(U1-Pad9)*%
X127000000Y-69850000D03*
%TO.P,U1,10*%
%TO.N,Net-(U1-Pad10)*%
X127000000Y-67310000D03*
%TO.P,U1,11*%
%TO.N,Net-(U1-Pad11)*%
X127000000Y-64770000D03*
%TO.P,U1,12*%
%TO.N,Net-(U1-Pad12)*%
X127000000Y-62230000D03*
%TO.P,U1,13*%
%TO.N,Net-(R2-Pad1)*%
X127000000Y-59690000D03*
%TO.P,U1,14*%
%TO.N,+5V*%
X127000000Y-57150000D03*
%TD*%
D12*
%TO.P,U2,1*%
%TO.N,Net-(U1-Pad2)*%
X143510000Y-57150000D03*
D11*
%TO.P,U2,2*%
%TO.N,Net-(R1-Pad1)*%
X143510000Y-59690000D03*
%TO.P,U2,3*%
%TO.N,Net-(R2-Pad2)*%
X143510000Y-62230000D03*
%TO.P,U2,4*%
%TO.N,Net-(U1-Pad11)*%
X143510000Y-64770000D03*
%TO.P,U2,5*%
%TO.N,Net-(U2-Pad5)*%
X143510000Y-67310000D03*
%TO.P,U2,6*%
%TO.N,Net-(R6-Pad2)*%
X143510000Y-69850000D03*
%TO.P,U2,7*%
%TO.N,GND*%
X143510000Y-72390000D03*
%TO.P,U2,8*%
%TO.N,Net-(U2-Pad5)*%
X151130000Y-72390000D03*
%TO.P,U2,9*%
%TO.N,Net-(U2-Pad9)*%
X151130000Y-69850000D03*
%TO.P,U2,10*%
%TO.N,Net-(R7-Pad2)*%
X151130000Y-67310000D03*
%TO.P,U2,11*%
%TO.N,Net-(R3-Pad2)*%
X151130000Y-64770000D03*
%TO.P,U2,12*%
%TO.N,Net-(R4-Pad2)*%
X151130000Y-62230000D03*
%TO.P,U2,13*%
%TO.N,Net-(R5-Pad2)*%
X151130000Y-59690000D03*
%TO.P,U2,14*%
%TO.N,+5V*%
X151130000Y-57150000D03*
%TD*%
D12*
%TO.P,U3,1*%
%TO.N,Net-(U2-Pad5)*%
X168910000Y-64770000D03*
D11*
%TO.P,U3,2*%
%TO.N,Net-(R3-Pad1)*%
X168910000Y-67310000D03*
%TO.P,U3,3*%
%TO.N,Net-(R4-Pad1)*%
X168910000Y-69850000D03*
%TO.P,U3,4*%
%TO.N,GND*%
X168910000Y-72390000D03*
%TO.P,U3,5*%
%TO.N,N/C*%
X176530000Y-72390000D03*
%TO.P,U3,6*%
%TO.N,Net-(R5-Pad1)*%
X176530000Y-69850000D03*
%TO.P,U3,7*%
%TO.N,Net-(U2-Pad9)*%
X176530000Y-67310000D03*
%TO.P,U3,8*%
%TO.N,Net-(R7-Pad1)*%
X176530000Y-64770000D03*
%TD*%
D13*
%TO.P, ,1*%
%TO.N,N/C*%
X140462000Y-57150000D03*
D14*
%TO.P, ,2*%
X140462000Y-59690000D03*
%TO.P, ,3*%
X140462000Y-62230000D03*
%TO.P, ,4*%
X140462000Y-64770000D03*
%TO.P, ,5*%
X140462000Y-67310000D03*
%TO.P, ,6*%
X140462000Y-69850000D03*
%TO.P, ,7*%
X140462000Y-72390000D03*
%TD*%
D13*
%TO.P, ,1*%
%TO.N,N/C*%
X154178000Y-57150000D03*
D14*
%TO.P, ,2*%
X154178000Y-59690000D03*
%TO.P, ,3*%
X154178000Y-62230000D03*
%TO.P, ,4*%
X154178000Y-64770000D03*
%TO.P, ,5*%
X154178000Y-67310000D03*
%TO.P, ,6*%
X154178000Y-69850000D03*
%TO.P, ,7*%
X154178000Y-72390000D03*
%TD*%
D13*
%TO.P, ,1*%
%TO.N,N/C*%
X165862000Y-64770000D03*
D14*
%TO.P, ,2*%
X165862000Y-67310000D03*
%TO.P, ,3*%
X165862000Y-69850000D03*
%TO.P, ,4*%
X165862000Y-72390000D03*
%TD*%
D13*
%TO.P, ,1*%
%TO.N,N/C*%
X182118000Y-77470000D03*
%TD*%
%TO.P,REF\u002A\u002A,1*%
%TO.N,N/C*%
X179603000Y-64770000D03*
D14*
%TO.P,REF\u002A\u002A,2*%
X179603000Y-67310000D03*
%TO.P,REF\u002A\u002A,3*%
X179603000Y-69850000D03*
%TD*%
D15*
%TO.P,RESET,1*%
%TO.N,N/C*%
X203910000Y-89118000D03*
X197410000Y-89118000D03*
%TO.P,RESET,2*%
X203910000Y-84618000D03*
X197410000Y-84618000D03*
%TD*%
D10*
%TO.P,R (PIEZO),1*%
%TO.N,N/C*%
X210312000Y-76454000D03*
D11*
%TO.P,R (PIEZO),2*%
X210312000Y-66294000D03*
%TD*%
D10*
%TO.P,R (LED),1*%
%TO.N,N/C*%
X193802000Y-91440000D03*
D11*
%TO.P,R (LED),2*%
X183642000Y-91440000D03*
%TD*%
D13*
%TO.P, ,1*%
%TO.N,N/C*%
X165608000Y-57150000D03*
%TD*%
%TO.P, ,1*%
%TO.N,N/C*%
X151892000Y-52070000D03*
%TD*%
%TO.P, ,1*%
%TO.N,N/C*%
X162306000Y-64770000D03*
D14*
%TO.P, ,2*%
X162306000Y-67310000D03*
%TD*%
D13*
%TO.P, ,1*%
%TO.N,N/C*%
X165862000Y-77470000D03*
%TD*%
%TO.P, ,1*%
%TO.N,N/C*%
X165608000Y-60960000D03*
%TD*%
D16*
%TO.P,LED,1*%
%TO.N,N/C*%
X183896000Y-85852000D03*
D17*
%TO.P,LED,2*%
X183896000Y-83312000D03*
%TD*%
D13*
%TO.P, ,1*%
%TO.N,N/C*%
X136144000Y-77470000D03*
%TD*%
D18*
%TO.P,PIEZO,1*%
%TO.N,N/C*%
X200162000Y-59436000D03*
D15*
%TO.P,PIEZO,2*%
X207762000Y-59436000D03*
%TD*%
D13*
%TO.P, ,1*%
%TO.N,N/C*%
X159766000Y-48260000D03*
D14*
%TO.P, ,2*%
X162306000Y-48260000D03*
%TD*%
D13*
%TO.P, ,1*%
%TO.N,N/C*%
X182118000Y-57150000D03*
%TD*%
%TO.P, ,1*%
%TO.N,N/C*%
X130048000Y-64770000D03*
%TD*%
D12*
%TO.P,MODE,1*%
%TO.N,N/C*%
X197114000Y-71130000D03*
D11*
%TO.P,MODE,2*%
X197114000Y-73670000D03*
%TO.P,MODE,3*%
X197114000Y-76210000D03*
%TO.P,MODE,4*%
X197114000Y-78750000D03*
%TO.P,MODE,5*%
X204734000Y-78750000D03*
%TO.P,MODE,6*%
X204734000Y-76210000D03*
%TO.P,MODE,7*%
X204734000Y-73670000D03*
%TO.P,MODE,8*%
X204734000Y-71130000D03*
%TD*%
D13*
%TO.P, ,1*%
%TO.N,N/C*%
X121412000Y-52070000D03*
%TD*%
%TO.P, ,1*%
%TO.N,N/C*%
X162560000Y-84099000D03*
D14*
%TO.P, ,2*%
X160020000Y-84099000D03*
%TO.P, ,3*%
X157480000Y-84099000D03*
%TD*%
D13*
%TO.P, ,1*%
%TO.N,N/C*%
X182118000Y-60960000D03*
%TD*%
%TO.P, ,1*%
%TO.N,N/C*%
X119634000Y-77470000D03*
%TD*%
%TO.P, ,1*%
%TO.N,N/C*%
X130048000Y-72390000D03*
%TD*%
%TO.P, ,1*%
%TO.N,N/C*%
X130048000Y-57150000D03*
D14*
%TO.P, ,2*%
X130048000Y-59690000D03*
%TD*%
D13*
%TO.P, ,1*%
%TO.N,N/C*%
X116357000Y-56916000D03*
D14*
%TO.P, ,2*%
X116357000Y-59456000D03*
%TD*%
D13*
%TO.P, ,1*%
%TO.N,N/C*%
X168148000Y-52070000D03*
%TD*%
%TO.P, ,1*%
%TO.N,N/C*%
X137668000Y-52070000D03*
%TD*%
%TO.P, ,1*%
%TO.N,N/C*%
X140462000Y-79248000D03*
%TD*%
%TO.P, ,1*%
%TO.N,N/C*%
X136906000Y-57170000D03*
D14*
%TO.P, ,2*%
X136906000Y-59710000D03*
%TD*%
D13*
%TO.P, ,1*%
%TO.N,N/C*%
X116357000Y-69870000D03*
D14*
%TO.P, ,2*%
X116357000Y-72410000D03*
%TD*%
D13*
%TO.P, ,1*%
%TO.N,N/C*%
X156718000Y-79248000D03*
%TD*%
D19*
%TO.P,REF\u002A\u002A,1*%
%TO.N,N/C*%
X191770000Y-83820000D03*
D14*
%TO.P,REF\u002A\u002A,2*%
X194310000Y-83820000D03*
%TO.P,REF\u002A\u002A,3*%
X191770000Y-81280000D03*
%TO.P,REF\u002A\u002A,4*%
X194310000Y-81280000D03*
%TO.P,REF\u002A\u002A,5*%
X191770000Y-78740000D03*
%TO.P,REF\u002A\u002A,6*%
X194310000Y-78740000D03*
%TO.P,REF\u002A\u002A,7*%
X191770000Y-76200000D03*
%TO.P,REF\u002A\u002A,8*%
X194310000Y-76200000D03*
%TO.P,REF\u002A\u002A,9*%
X191770000Y-73660000D03*
%TO.P,REF\u002A\u002A,10*%
X194310000Y-73660000D03*
%TO.P,REF\u002A\u002A,11*%
X191770000Y-71120000D03*
%TO.P,REF\u002A\u002A,12*%
X194310000Y-71120000D03*
%TO.P,REF\u002A\u002A,13*%
X191770000Y-68580000D03*
%TO.P,REF\u002A\u002A,14*%
X194310000Y-68580000D03*
%TO.P,REF\u002A\u002A,15*%
X191770000Y-66040000D03*
%TO.P,REF\u002A\u002A,16*%
X194310000Y-66040000D03*
%TO.P,REF\u002A\u002A,17*%
X191770000Y-63500000D03*
%TO.P,REF\u002A\u002A,18*%
X194310000Y-63500000D03*
%TO.P,REF\u002A\u002A,19*%
X191770000Y-60960000D03*
%TO.P,REF\u002A\u002A,20*%
X194310000Y-60960000D03*
%TO.P,REF\u002A\u002A,21*%
X191770000Y-58420000D03*
%TO.P,REF\u002A\u002A,22*%
X194310000Y-58420000D03*
%TO.P,REF\u002A\u002A,23*%
X191770000Y-55880000D03*
%TO.P,REF\u002A\u002A,24*%
X194310000Y-55880000D03*
%TO.P,REF\u002A\u002A,25*%
X191770000Y-53340000D03*
%TO.P,REF\u002A\u002A,26*%
X194310000Y-53340000D03*
%TO.P,REF\u002A\u002A,27*%
X191770000Y-50800000D03*
%TO.P,REF\u002A\u002A,28*%
X194310000Y-50800000D03*
%TO.P,REF\u002A\u002A,29*%
X191770000Y-48260000D03*
%TO.P,REF\u002A\u002A,30*%
X194310000Y-48260000D03*
%TD*%
D20*
%TO.N,*%
X198374000Y-80010000D02*
X190754000Y-80010000D01*
X190246000Y-75184000D02*
X191770000Y-73660000D01*
X149860000Y-44704000D02*
X151892000Y-44704000D01*
X197410000Y-82094000D02*
X196596000Y-81280000D01*
X197410000Y-84618000D02*
X197410000Y-82094000D01*
X151892000Y-44704000D02*
X152654000Y-44704000D01*
X170180000Y-62992000D02*
X173228000Y-66040000D01*
X173228000Y-66040000D02*
X177800000Y-66040000D01*
X190754000Y-80010000D02*
X190246000Y-79502000D01*
D21*
X197114000Y-73670000D02*
X195834000Y-74950000D01*
D20*
X140462000Y-62230000D02*
X138684000Y-60452000D01*
X133096000Y-59690000D02*
X135616000Y-57170000D01*
D21*
X151892000Y-52070000D02*
X151892000Y-44704000D01*
D20*
X200162000Y-78222000D02*
X198374000Y-80010000D01*
X135616000Y-57170000D02*
X136906000Y-57170000D01*
D21*
X195834000Y-76962000D02*
X195326000Y-77470000D01*
D20*
X204734000Y-78755000D02*
X204734000Y-76215000D01*
X140462000Y-64770000D02*
X140462000Y-62230000D01*
D21*
X195834000Y-74950000D02*
X195834000Y-76962000D01*
D20*
X210312000Y-66294000D02*
X210312000Y-61986000D01*
X190246000Y-79502000D02*
X190246000Y-75184000D01*
X205486000Y-80010000D02*
X204734000Y-79258000D01*
X168402000Y-52070000D02*
X175260000Y-45212000D01*
X168402000Y-62992000D02*
X167640000Y-62992000D01*
X152654000Y-44704000D02*
X166878000Y-44704000D01*
X175260000Y-45212000D02*
X175260000Y-44704000D01*
X179070000Y-67310000D02*
X179603000Y-67310000D01*
X175260000Y-44704000D02*
X193548000Y-44704000D01*
X193548000Y-44704000D02*
X199136000Y-44704000D01*
X177800000Y-66040000D02*
X179070000Y-67310000D01*
X166878000Y-44704000D02*
X175260000Y-44704000D01*
D21*
X204734000Y-73670000D02*
X204734000Y-71130000D01*
D20*
X168402000Y-62992000D02*
X170180000Y-62992000D01*
X163322000Y-56896000D02*
X168148000Y-52070000D01*
X200162000Y-59436000D02*
X200162000Y-78222000D01*
D21*
X195326000Y-77470000D02*
X193040000Y-77470000D01*
D20*
X196596000Y-81280000D02*
X194310000Y-81280000D01*
X204734000Y-50302000D02*
X204734000Y-71130000D01*
X163322000Y-58674000D02*
X163322000Y-56896000D01*
X204734000Y-79258000D02*
X204734000Y-78750000D01*
X203910000Y-89118000D02*
X205486000Y-87542000D01*
D21*
X193040000Y-77470000D02*
X191770000Y-76200000D01*
D20*
X130048000Y-59690000D02*
X133096000Y-59690000D01*
X199136000Y-44704000D02*
X204734000Y-50302000D01*
X165608000Y-60960000D02*
X163322000Y-58674000D01*
X167640000Y-62992000D02*
X165608000Y-60960000D01*
X208016000Y-78750000D02*
X210312000Y-76454000D01*
X204734000Y-78750000D02*
X208016000Y-78750000D01*
X204734000Y-76215000D02*
X204734000Y-73675000D01*
X138684000Y-55880000D02*
X149860000Y-44704000D01*
X205486000Y-87542000D02*
X205486000Y-80010000D01*
X210312000Y-61986000D02*
X207762000Y-59436000D01*
X138684000Y-60452000D02*
X138684000Y-55880000D01*
%TD*%
M02*
