%TF.GenerationSoftware,KiCad,Pcbnew,(6.0.5)*%
%TF.CreationDate,2022-06-20T20:36:39+02:00*%
%TF.ProjectId,bomba-robotabor,626f6d62-612d-4726-9f62-6f7461626f72,rev?*%
%TF.SameCoordinates,Original*%
%TF.FileFunction,Legend,Top*%
%TF.FilePolarity,Positive*%
%FSLAX46Y46*%
G04 Gerber Fmt 4.6, Leading zero omitted, Abs format (unit mm)*
G04 Created by KiCad (PCBNEW (6.0.5)) date 2022-06-20 20:36:39*
%MOMM*%
%LPD*%
G01*
G04 APERTURE LIST*
%ADD10C,0.120000*%
%ADD11C,0.150000*%
G04 APERTURE END LIST*
D10*
X186436000Y-42672000D02*
X186436000Y-80264000D01*
X178308000Y-80264000D02*
X178308000Y-96012000D01*
X207137000Y-70104000D02*
X206375000Y-71628000D01*
X186436000Y-80264000D02*
X178308000Y-80264000D01*
X207137000Y-80518000D02*
X207137000Y-70104000D01*
X207899000Y-71628000D02*
X207137000Y-70104000D01*
X214122000Y-42672000D02*
X186436000Y-42672000D01*
D11*
X189548857Y-41798761D02*
X189548857Y-39798761D01*
X190025047Y-39798761D01*
X190310761Y-39894000D01*
X190501238Y-40084476D01*
X190596476Y-40274952D01*
X190691714Y-40655904D01*
X190691714Y-40941619D01*
X190596476Y-41322571D01*
X190501238Y-41513047D01*
X190310761Y-41703523D01*
X190025047Y-41798761D01*
X189548857Y-41798761D01*
X191929809Y-39798761D02*
X192310761Y-39798761D01*
X192501238Y-39894000D01*
X192691714Y-40084476D01*
X192786952Y-40465428D01*
X192786952Y-41132095D01*
X192691714Y-41513047D01*
X192501238Y-41703523D01*
X192310761Y-41798761D01*
X191929809Y-41798761D01*
X191739333Y-41703523D01*
X191548857Y-41513047D01*
X191453619Y-41132095D01*
X191453619Y-40465428D01*
X191548857Y-40084476D01*
X191739333Y-39894000D01*
X191929809Y-39798761D01*
X195167904Y-41798761D02*
X195167904Y-39798761D01*
X196310761Y-41798761D01*
X196310761Y-39798761D01*
X197644095Y-39798761D02*
X198025047Y-39798761D01*
X198215523Y-39894000D01*
X198406000Y-40084476D01*
X198501238Y-40465428D01*
X198501238Y-41132095D01*
X198406000Y-41513047D01*
X198215523Y-41703523D01*
X198025047Y-41798761D01*
X197644095Y-41798761D01*
X197453619Y-41703523D01*
X197263142Y-41513047D01*
X197167904Y-41132095D01*
X197167904Y-40465428D01*
X197263142Y-40084476D01*
X197453619Y-39894000D01*
X197644095Y-39798761D01*
X199072666Y-39798761D02*
X200215523Y-39798761D01*
X199644095Y-41798761D02*
X199644095Y-39798761D01*
X202120285Y-39798761D02*
X203263142Y-39798761D01*
X202691714Y-41798761D02*
X202691714Y-39798761D01*
X204310761Y-39798761D02*
X204691714Y-39798761D01*
X204882190Y-39894000D01*
X205072666Y-40084476D01*
X205167904Y-40465428D01*
X205167904Y-41132095D01*
X205072666Y-41513047D01*
X204882190Y-41703523D01*
X204691714Y-41798761D01*
X204310761Y-41798761D01*
X204120285Y-41703523D01*
X203929809Y-41513047D01*
X203834571Y-41132095D01*
X203834571Y-40465428D01*
X203929809Y-40084476D01*
X204120285Y-39894000D01*
X204310761Y-39798761D01*
X206025047Y-39798761D02*
X206025047Y-41417809D01*
X206120285Y-41608285D01*
X206215523Y-41703523D01*
X206406000Y-41798761D01*
X206786952Y-41798761D01*
X206977428Y-41703523D01*
X207072666Y-41608285D01*
X207167904Y-41417809D01*
X207167904Y-39798761D01*
X209263142Y-41608285D02*
X209167904Y-41703523D01*
X208882190Y-41798761D01*
X208691714Y-41798761D01*
X208406000Y-41703523D01*
X208215523Y-41513047D01*
X208120285Y-41322571D01*
X208025047Y-40941619D01*
X208025047Y-40655904D01*
X208120285Y-40274952D01*
X208215523Y-40084476D01*
X208406000Y-39894000D01*
X208691714Y-39798761D01*
X208882190Y-39798761D01*
X209167904Y-39894000D01*
X209263142Y-39989238D01*
X210120285Y-41798761D02*
X210120285Y-39798761D01*
X210120285Y-40751142D02*
X211263142Y-40751142D01*
X211263142Y-41798761D02*
X211263142Y-39798761D01*
X118970285Y-39195428D02*
X119827428Y-39481142D01*
X120113142Y-39766857D01*
X120398857Y-40338285D01*
X120398857Y-41195428D01*
X120113142Y-41766857D01*
X119827428Y-42052571D01*
X119256000Y-42338285D01*
X116970285Y-42338285D01*
X116970285Y-36338285D01*
X118970285Y-36338285D01*
X119541714Y-36624000D01*
X119827428Y-36909714D01*
X120113142Y-37481142D01*
X120113142Y-38052571D01*
X119827428Y-38624000D01*
X119541714Y-38909714D01*
X118970285Y-39195428D01*
X116970285Y-39195428D01*
X124113142Y-36338285D02*
X125256000Y-36338285D01*
X125827428Y-36624000D01*
X126398857Y-37195428D01*
X126684571Y-38338285D01*
X126684571Y-40338285D01*
X126398857Y-41481142D01*
X125827428Y-42052571D01*
X125256000Y-42338285D01*
X124113142Y-42338285D01*
X123541714Y-42052571D01*
X122970285Y-41481142D01*
X122684571Y-40338285D01*
X122684571Y-38338285D01*
X122970285Y-37195428D01*
X123541714Y-36624000D01*
X124113142Y-36338285D01*
X129256000Y-42338285D02*
X129256000Y-36338285D01*
X131256000Y-40624000D01*
X133256000Y-36338285D01*
X133256000Y-42338285D01*
X138113142Y-39195428D02*
X138970285Y-39481142D01*
X139256000Y-39766857D01*
X139541714Y-40338285D01*
X139541714Y-41195428D01*
X139256000Y-41766857D01*
X138970285Y-42052571D01*
X138398857Y-42338285D01*
X136113142Y-42338285D01*
X136113142Y-36338285D01*
X138113142Y-36338285D01*
X138684571Y-36624000D01*
X138970285Y-36909714D01*
X139256000Y-37481142D01*
X139256000Y-38052571D01*
X138970285Y-38624000D01*
X138684571Y-38909714D01*
X138113142Y-39195428D01*
X136113142Y-39195428D01*
X148684571Y-39195428D02*
X149541714Y-39481142D01*
X149827428Y-39766857D01*
X150113142Y-40338285D01*
X150113142Y-41195428D01*
X149827428Y-41766857D01*
X149541714Y-42052571D01*
X148970285Y-42338285D01*
X146684571Y-42338285D01*
X146684571Y-36338285D01*
X148684571Y-36338285D01*
X149256000Y-36624000D01*
X149541714Y-36909714D01*
X149827428Y-37481142D01*
X149827428Y-38052571D01*
X149541714Y-38624000D01*
X149256000Y-38909714D01*
X148684571Y-39195428D01*
X146684571Y-39195428D01*
X152398857Y-40624000D02*
X155256000Y-40624000D01*
X151827428Y-42338285D02*
X153827428Y-36338285D01*
X155827428Y-42338285D01*
X157541714Y-42052571D02*
X158398857Y-42338285D01*
X159827428Y-42338285D01*
X160398857Y-42052571D01*
X160684571Y-41766857D01*
X160970285Y-41195428D01*
X160970285Y-40624000D01*
X160684571Y-40052571D01*
X160398857Y-39766857D01*
X159827428Y-39481142D01*
X158684571Y-39195428D01*
X158113142Y-38909714D01*
X157827428Y-38624000D01*
X157541714Y-38052571D01*
X157541714Y-37481142D01*
X157827428Y-36909714D01*
X158113142Y-36624000D01*
X158684571Y-36338285D01*
X160113142Y-36338285D01*
X160970285Y-36624000D01*
X163541714Y-42338285D02*
X163541714Y-36338285D01*
X169827428Y-41766857D02*
X169541714Y-42052571D01*
X168684571Y-42338285D01*
X168113142Y-42338285D01*
X167256000Y-42052571D01*
X166684571Y-41481142D01*
X166398857Y-40909714D01*
X166113142Y-39766857D01*
X166113142Y-38909714D01*
X166398857Y-37766857D01*
X166684571Y-37195428D01*
X167256000Y-36624000D01*
X168113142Y-36338285D01*
X168684571Y-36338285D01*
X169541714Y-36624000D01*
X169827428Y-36909714D01*
X118810095Y-47894761D02*
X118810095Y-45894761D01*
X118810095Y-46656666D02*
X119000571Y-46561428D01*
X119381523Y-46561428D01*
X119572000Y-46656666D01*
X119667238Y-46751904D01*
X119762476Y-46942380D01*
X119762476Y-47513809D01*
X119667238Y-47704285D01*
X119572000Y-47799523D01*
X119381523Y-47894761D01*
X119000571Y-47894761D01*
X118810095Y-47799523D01*
X120429142Y-46561428D02*
X120905333Y-47894761D01*
X121381523Y-46561428D02*
X120905333Y-47894761D01*
X120714857Y-48370952D01*
X120619619Y-48466190D01*
X120429142Y-48561428D01*
X123667238Y-46561428D02*
X123667238Y-48561428D01*
X123667238Y-46656666D02*
X123857714Y-46561428D01*
X124238666Y-46561428D01*
X124429142Y-46656666D01*
X124524380Y-46751904D01*
X124619619Y-46942380D01*
X124619619Y-47513809D01*
X124524380Y-47704285D01*
X124429142Y-47799523D01*
X124238666Y-47894761D01*
X123857714Y-47894761D01*
X123667238Y-47799523D01*
X125476761Y-47894761D02*
X125476761Y-45894761D01*
X126333904Y-47894761D02*
X126333904Y-46847142D01*
X126238666Y-46656666D01*
X126048190Y-46561428D01*
X125762476Y-46561428D01*
X125572000Y-46656666D01*
X125476761Y-46751904D01*
X128143428Y-46561428D02*
X128143428Y-47894761D01*
X127286285Y-46561428D02*
X127286285Y-47609047D01*
X127381523Y-47799523D01*
X127572000Y-47894761D01*
X127857714Y-47894761D01*
X128048190Y-47799523D01*
X128143428Y-47704285D01*
X129095809Y-47894761D02*
X129095809Y-46561428D01*
X129095809Y-45894761D02*
X129000571Y-45990000D01*
X129095809Y-46085238D01*
X129191047Y-45990000D01*
X129095809Y-45894761D01*
X129095809Y-46085238D01*
X130905333Y-47894761D02*
X130905333Y-45894761D01*
X130905333Y-47799523D02*
X130714857Y-47894761D01*
X130333904Y-47894761D01*
X130143428Y-47799523D01*
X130048190Y-47704285D01*
X129952952Y-47513809D01*
X129952952Y-46942380D01*
X130048190Y-46751904D01*
X130143428Y-46656666D01*
X130333904Y-46561428D01*
X130714857Y-46561428D01*
X130905333Y-46656666D01*
X135000571Y-47894761D02*
X134905333Y-47894761D01*
X134714857Y-47799523D01*
X134429142Y-47513809D01*
X133952952Y-46942380D01*
X133762476Y-46656666D01*
X133667238Y-46370952D01*
X133667238Y-46180476D01*
X133762476Y-45990000D01*
X133952952Y-45894761D01*
X134048190Y-45894761D01*
X134238666Y-45990000D01*
X134333904Y-46180476D01*
X134333904Y-46275714D01*
X134238666Y-46466190D01*
X134143428Y-46561428D01*
X133572000Y-46942380D01*
X133476761Y-47037619D01*
X133381523Y-47228095D01*
X133381523Y-47513809D01*
X133476761Y-47704285D01*
X133572000Y-47799523D01*
X133762476Y-47894761D01*
X134048190Y-47894761D01*
X134238666Y-47799523D01*
X134333904Y-47704285D01*
X134619619Y-47323333D01*
X134714857Y-47037619D01*
X134714857Y-46847142D01*
X137381523Y-47894761D02*
X137381523Y-45894761D01*
X138048190Y-47323333D01*
X138714857Y-45894761D01*
X138714857Y-47894761D01*
X139667238Y-47894761D02*
X139667238Y-46561428D01*
X139667238Y-45894761D02*
X139572000Y-45990000D01*
X139667238Y-46085238D01*
X139762476Y-45990000D01*
X139667238Y-45894761D01*
X139667238Y-46085238D01*
X140905333Y-47894761D02*
X140714857Y-47799523D01*
X140619619Y-47609047D01*
X140619619Y-45894761D01*
X142524380Y-47894761D02*
X142524380Y-45894761D01*
X142524380Y-47799523D02*
X142333904Y-47894761D01*
X141952952Y-47894761D01*
X141762476Y-47799523D01*
X141667238Y-47704285D01*
X141572000Y-47513809D01*
X141572000Y-46942380D01*
X141667238Y-46751904D01*
X141762476Y-46656666D01*
X141952952Y-46561428D01*
X142333904Y-46561428D01*
X142524380Y-46656666D01*
X144333904Y-47894761D02*
X144333904Y-46847142D01*
X144238666Y-46656666D01*
X144048190Y-46561428D01*
X143667238Y-46561428D01*
X143476761Y-46656666D01*
X144333904Y-47799523D02*
X144143428Y-47894761D01*
X143667238Y-47894761D01*
X143476761Y-47799523D01*
X143381523Y-47609047D01*
X143381523Y-47418571D01*
X143476761Y-47228095D01*
X143667238Y-47132857D01*
X144143428Y-47132857D01*
X144333904Y-47037619D01*
%TO.C,R1*%
X159853333Y-52522380D02*
X159520000Y-52046190D01*
X159281904Y-52522380D02*
X159281904Y-51522380D01*
X159662857Y-51522380D01*
X159758095Y-51570000D01*
X159805714Y-51617619D01*
X159853333Y-51712857D01*
X159853333Y-51855714D01*
X159805714Y-51950952D01*
X159758095Y-51998571D01*
X159662857Y-52046190D01*
X159281904Y-52046190D01*
X160805714Y-52522380D02*
X160234285Y-52522380D01*
X160520000Y-52522380D02*
X160520000Y-51522380D01*
X160424761Y-51665238D01*
X160329523Y-51760476D01*
X160234285Y-51808095D01*
%TO.C,R2*%
X129373333Y-52522380D02*
X129040000Y-52046190D01*
X128801904Y-52522380D02*
X128801904Y-51522380D01*
X129182857Y-51522380D01*
X129278095Y-51570000D01*
X129325714Y-51617619D01*
X129373333Y-51712857D01*
X129373333Y-51855714D01*
X129325714Y-51950952D01*
X129278095Y-51998571D01*
X129182857Y-52046190D01*
X128801904Y-52046190D01*
X129754285Y-51617619D02*
X129801904Y-51570000D01*
X129897142Y-51522380D01*
X130135238Y-51522380D01*
X130230476Y-51570000D01*
X130278095Y-51617619D01*
X130325714Y-51712857D01*
X130325714Y-51808095D01*
X130278095Y-51950952D01*
X129706666Y-52522380D01*
X130325714Y-52522380D01*
%TO.C,R3*%
X148423333Y-79700380D02*
X148090000Y-79224190D01*
X147851904Y-79700380D02*
X147851904Y-78700380D01*
X148232857Y-78700380D01*
X148328095Y-78748000D01*
X148375714Y-78795619D01*
X148423333Y-78890857D01*
X148423333Y-79033714D01*
X148375714Y-79128952D01*
X148328095Y-79176571D01*
X148232857Y-79224190D01*
X147851904Y-79224190D01*
X148756666Y-78700380D02*
X149375714Y-78700380D01*
X149042380Y-79081333D01*
X149185238Y-79081333D01*
X149280476Y-79128952D01*
X149328095Y-79176571D01*
X149375714Y-79271809D01*
X149375714Y-79509904D01*
X149328095Y-79605142D01*
X149280476Y-79652761D01*
X149185238Y-79700380D01*
X148899523Y-79700380D01*
X148804285Y-79652761D01*
X148756666Y-79605142D01*
%TO.C,R4*%
X173823333Y-57602380D02*
X173490000Y-57126190D01*
X173251904Y-57602380D02*
X173251904Y-56602380D01*
X173632857Y-56602380D01*
X173728095Y-56650000D01*
X173775714Y-56697619D01*
X173823333Y-56792857D01*
X173823333Y-56935714D01*
X173775714Y-57030952D01*
X173728095Y-57078571D01*
X173632857Y-57126190D01*
X173251904Y-57126190D01*
X174680476Y-56935714D02*
X174680476Y-57602380D01*
X174442380Y-56554761D02*
X174204285Y-57269047D01*
X174823333Y-57269047D01*
%TO.C,R5*%
X173823333Y-77922380D02*
X173490000Y-77446190D01*
X173251904Y-77922380D02*
X173251904Y-76922380D01*
X173632857Y-76922380D01*
X173728095Y-76970000D01*
X173775714Y-77017619D01*
X173823333Y-77112857D01*
X173823333Y-77255714D01*
X173775714Y-77350952D01*
X173728095Y-77398571D01*
X173632857Y-77446190D01*
X173251904Y-77446190D01*
X174728095Y-76922380D02*
X174251904Y-76922380D01*
X174204285Y-77398571D01*
X174251904Y-77350952D01*
X174347142Y-77303333D01*
X174585238Y-77303333D01*
X174680476Y-77350952D01*
X174728095Y-77398571D01*
X174775714Y-77493809D01*
X174775714Y-77731904D01*
X174728095Y-77827142D01*
X174680476Y-77874761D01*
X174585238Y-77922380D01*
X174347142Y-77922380D01*
X174251904Y-77874761D01*
X174204285Y-77827142D01*
%TO.C,R6*%
X127849333Y-77922380D02*
X127516000Y-77446190D01*
X127277904Y-77922380D02*
X127277904Y-76922380D01*
X127658857Y-76922380D01*
X127754095Y-76970000D01*
X127801714Y-77017619D01*
X127849333Y-77112857D01*
X127849333Y-77255714D01*
X127801714Y-77350952D01*
X127754095Y-77398571D01*
X127658857Y-77446190D01*
X127277904Y-77446190D01*
X128706476Y-76922380D02*
X128516000Y-76922380D01*
X128420761Y-76970000D01*
X128373142Y-77017619D01*
X128277904Y-77160476D01*
X128230285Y-77350952D01*
X128230285Y-77731904D01*
X128277904Y-77827142D01*
X128325523Y-77874761D01*
X128420761Y-77922380D01*
X128611238Y-77922380D01*
X128706476Y-77874761D01*
X128754095Y-77827142D01*
X128801714Y-77731904D01*
X128801714Y-77493809D01*
X128754095Y-77398571D01*
X128706476Y-77350952D01*
X128611238Y-77303333D01*
X128420761Y-77303333D01*
X128325523Y-77350952D01*
X128277904Y-77398571D01*
X128230285Y-77493809D01*
%TO.C,R7*%
X173823333Y-61412380D02*
X173490000Y-60936190D01*
X173251904Y-61412380D02*
X173251904Y-60412380D01*
X173632857Y-60412380D01*
X173728095Y-60460000D01*
X173775714Y-60507619D01*
X173823333Y-60602857D01*
X173823333Y-60745714D01*
X173775714Y-60840952D01*
X173728095Y-60888571D01*
X173632857Y-60936190D01*
X173251904Y-60936190D01*
X174156666Y-60412380D02*
X174823333Y-60412380D01*
X174394761Y-61412380D01*
%TO.C,U1*%
X122428095Y-60412380D02*
X122428095Y-61221904D01*
X122475714Y-61317142D01*
X122523333Y-61364761D01*
X122618571Y-61412380D01*
X122809047Y-61412380D01*
X122904285Y-61364761D01*
X122951904Y-61317142D01*
X122999523Y-61221904D01*
X122999523Y-60412380D01*
X123999523Y-61412380D02*
X123428095Y-61412380D01*
X123713809Y-61412380D02*
X123713809Y-60412380D01*
X123618571Y-60555238D01*
X123523333Y-60650476D01*
X123428095Y-60698095D01*
%TO.C,U2*%
X146558095Y-60412380D02*
X146558095Y-61221904D01*
X146605714Y-61317142D01*
X146653333Y-61364761D01*
X146748571Y-61412380D01*
X146939047Y-61412380D01*
X147034285Y-61364761D01*
X147081904Y-61317142D01*
X147129523Y-61221904D01*
X147129523Y-60412380D01*
X147558095Y-60507619D02*
X147605714Y-60460000D01*
X147700952Y-60412380D01*
X147939047Y-60412380D01*
X148034285Y-60460000D01*
X148081904Y-60507619D01*
X148129523Y-60602857D01*
X148129523Y-60698095D01*
X148081904Y-60840952D01*
X147510476Y-61412380D01*
X148129523Y-61412380D01*
%TO.C,U3*%
X171958095Y-65492380D02*
X171958095Y-66301904D01*
X172005714Y-66397142D01*
X172053333Y-66444761D01*
X172148571Y-66492380D01*
X172339047Y-66492380D01*
X172434285Y-66444761D01*
X172481904Y-66397142D01*
X172529523Y-66301904D01*
X172529523Y-65492380D01*
X172910476Y-65492380D02*
X173529523Y-65492380D01*
X173196190Y-65873333D01*
X173339047Y-65873333D01*
X173434285Y-65920952D01*
X173481904Y-65968571D01*
X173529523Y-66063809D01*
X173529523Y-66301904D01*
X173481904Y-66397142D01*
X173434285Y-66444761D01*
X173339047Y-66492380D01*
X173053333Y-66492380D01*
X172958095Y-66444761D01*
X172910476Y-66397142D01*
%TO.C, *%
%TO.C,RESET*%
X199207619Y-92146380D02*
X198874285Y-91670190D01*
X198636190Y-92146380D02*
X198636190Y-91146380D01*
X199017142Y-91146380D01*
X199112380Y-91194000D01*
X199160000Y-91241619D01*
X199207619Y-91336857D01*
X199207619Y-91479714D01*
X199160000Y-91574952D01*
X199112380Y-91622571D01*
X199017142Y-91670190D01*
X198636190Y-91670190D01*
X199636190Y-91622571D02*
X199969523Y-91622571D01*
X200112380Y-92146380D02*
X199636190Y-92146380D01*
X199636190Y-91146380D01*
X200112380Y-91146380D01*
X200493333Y-92098761D02*
X200636190Y-92146380D01*
X200874285Y-92146380D01*
X200969523Y-92098761D01*
X201017142Y-92051142D01*
X201064761Y-91955904D01*
X201064761Y-91860666D01*
X201017142Y-91765428D01*
X200969523Y-91717809D01*
X200874285Y-91670190D01*
X200683809Y-91622571D01*
X200588571Y-91574952D01*
X200540952Y-91527333D01*
X200493333Y-91432095D01*
X200493333Y-91336857D01*
X200540952Y-91241619D01*
X200588571Y-91194000D01*
X200683809Y-91146380D01*
X200921904Y-91146380D01*
X201064761Y-91194000D01*
X201493333Y-91622571D02*
X201826666Y-91622571D01*
X201969523Y-92146380D02*
X201493333Y-92146380D01*
X201493333Y-91146380D01*
X201969523Y-91146380D01*
X202255238Y-91146380D02*
X202826666Y-91146380D01*
X202540952Y-92146380D02*
X202540952Y-91146380D01*
%TO.C,R (PIEZO)*%
X213304380Y-74302571D02*
X212828190Y-74635904D01*
X213304380Y-74874000D02*
X212304380Y-74874000D01*
X212304380Y-74493047D01*
X212352000Y-74397809D01*
X212399619Y-74350190D01*
X212494857Y-74302571D01*
X212637714Y-74302571D01*
X212732952Y-74350190D01*
X212780571Y-74397809D01*
X212828190Y-74493047D01*
X212828190Y-74874000D01*
X213685333Y-72826380D02*
X213637714Y-72874000D01*
X213494857Y-72969238D01*
X213399619Y-73016857D01*
X213256761Y-73064476D01*
X213018666Y-73112095D01*
X212828190Y-73112095D01*
X212590095Y-73064476D01*
X212447238Y-73016857D01*
X212352000Y-72969238D01*
X212209142Y-72874000D01*
X212161523Y-72826380D01*
X213304380Y-72445428D02*
X212304380Y-72445428D01*
X212304380Y-72064476D01*
X212352000Y-71969238D01*
X212399619Y-71921619D01*
X212494857Y-71874000D01*
X212637714Y-71874000D01*
X212732952Y-71921619D01*
X212780571Y-71969238D01*
X212828190Y-72064476D01*
X212828190Y-72445428D01*
X213304380Y-71445428D02*
X212304380Y-71445428D01*
X212780571Y-70969238D02*
X212780571Y-70635904D01*
X213304380Y-70493047D02*
X213304380Y-70969238D01*
X212304380Y-70969238D01*
X212304380Y-70493047D01*
X212304380Y-70159714D02*
X212304380Y-69493047D01*
X213304380Y-70159714D01*
X213304380Y-69493047D01*
X212304380Y-68921619D02*
X212304380Y-68731142D01*
X212352000Y-68635904D01*
X212447238Y-68540666D01*
X212637714Y-68493047D01*
X212971047Y-68493047D01*
X213161523Y-68540666D01*
X213256761Y-68635904D01*
X213304380Y-68731142D01*
X213304380Y-68921619D01*
X213256761Y-69016857D01*
X213161523Y-69112095D01*
X212971047Y-69159714D01*
X212637714Y-69159714D01*
X212447238Y-69112095D01*
X212352000Y-69016857D01*
X212304380Y-68921619D01*
X213685333Y-68159714D02*
X213637714Y-68112095D01*
X213494857Y-68016857D01*
X213399619Y-67969238D01*
X213256761Y-67921619D01*
X213018666Y-67874000D01*
X212828190Y-67874000D01*
X212590095Y-67921619D01*
X212447238Y-67969238D01*
X212352000Y-68016857D01*
X212209142Y-68112095D01*
X212161523Y-68159714D01*
%TO.C,R (LED)*%
X186626761Y-94262380D02*
X186293428Y-93786190D01*
X186055333Y-94262380D02*
X186055333Y-93262380D01*
X186436285Y-93262380D01*
X186531523Y-93310000D01*
X186579142Y-93357619D01*
X186626761Y-93452857D01*
X186626761Y-93595714D01*
X186579142Y-93690952D01*
X186531523Y-93738571D01*
X186436285Y-93786190D01*
X186055333Y-93786190D01*
X188102952Y-94643333D02*
X188055333Y-94595714D01*
X187960095Y-94452857D01*
X187912476Y-94357619D01*
X187864857Y-94214761D01*
X187817238Y-93976666D01*
X187817238Y-93786190D01*
X187864857Y-93548095D01*
X187912476Y-93405238D01*
X187960095Y-93310000D01*
X188055333Y-93167142D01*
X188102952Y-93119523D01*
X188960095Y-94262380D02*
X188483904Y-94262380D01*
X188483904Y-93262380D01*
X189293428Y-93738571D02*
X189626761Y-93738571D01*
X189769619Y-94262380D02*
X189293428Y-94262380D01*
X189293428Y-93262380D01*
X189769619Y-93262380D01*
X190198190Y-94262380D02*
X190198190Y-93262380D01*
X190436285Y-93262380D01*
X190579142Y-93310000D01*
X190674380Y-93405238D01*
X190722000Y-93500476D01*
X190769619Y-93690952D01*
X190769619Y-93833809D01*
X190722000Y-94024285D01*
X190674380Y-94119523D01*
X190579142Y-94214761D01*
X190436285Y-94262380D01*
X190198190Y-94262380D01*
X191102952Y-94643333D02*
X191150571Y-94595714D01*
X191245809Y-94452857D01*
X191293428Y-94357619D01*
X191341047Y-94214761D01*
X191388666Y-93976666D01*
X191388666Y-93786190D01*
X191341047Y-93548095D01*
X191293428Y-93405238D01*
X191245809Y-93310000D01*
X191150571Y-93167142D01*
X191102952Y-93119523D01*
%TO.C, *%
%TO.C,LED*%
X180388380Y-85224857D02*
X180388380Y-85701047D01*
X179388380Y-85701047D01*
X179864571Y-84891523D02*
X179864571Y-84558190D01*
X180388380Y-84415333D02*
X180388380Y-84891523D01*
X179388380Y-84891523D01*
X179388380Y-84415333D01*
X180388380Y-83986761D02*
X179388380Y-83986761D01*
X179388380Y-83748666D01*
X179436000Y-83605809D01*
X179531238Y-83510571D01*
X179626476Y-83462952D01*
X179816952Y-83415333D01*
X179959809Y-83415333D01*
X180150285Y-83462952D01*
X180245523Y-83510571D01*
X180340761Y-83605809D01*
X180388380Y-83748666D01*
X180388380Y-83986761D01*
%TO.C, *%
%TO.C,PIEZO*%
X202009619Y-52688380D02*
X202009619Y-51688380D01*
X202390571Y-51688380D01*
X202485809Y-51736000D01*
X202533428Y-51783619D01*
X202581047Y-51878857D01*
X202581047Y-52021714D01*
X202533428Y-52116952D01*
X202485809Y-52164571D01*
X202390571Y-52212190D01*
X202009619Y-52212190D01*
X203009619Y-52688380D02*
X203009619Y-51688380D01*
X203485809Y-52164571D02*
X203819142Y-52164571D01*
X203962000Y-52688380D02*
X203485809Y-52688380D01*
X203485809Y-51688380D01*
X203962000Y-51688380D01*
X204295333Y-51688380D02*
X204962000Y-51688380D01*
X204295333Y-52688380D01*
X204962000Y-52688380D01*
X205533428Y-51688380D02*
X205723904Y-51688380D01*
X205819142Y-51736000D01*
X205914380Y-51831238D01*
X205962000Y-52021714D01*
X205962000Y-52355047D01*
X205914380Y-52545523D01*
X205819142Y-52640761D01*
X205723904Y-52688380D01*
X205533428Y-52688380D01*
X205438190Y-52640761D01*
X205342952Y-52545523D01*
X205295333Y-52355047D01*
X205295333Y-52021714D01*
X205342952Y-51831238D01*
X205438190Y-51736000D01*
X205533428Y-51688380D01*
X199771047Y-56967428D02*
X200532952Y-56967428D01*
X200152000Y-57348380D02*
X200152000Y-56586476D01*
%TO.C, *%
%TO.C,MODE*%
X199114476Y-68472380D02*
X199114476Y-67472380D01*
X199447809Y-68186666D01*
X199781142Y-67472380D01*
X199781142Y-68472380D01*
X200447809Y-67472380D02*
X200638285Y-67472380D01*
X200733523Y-67520000D01*
X200828761Y-67615238D01*
X200876380Y-67805714D01*
X200876380Y-68139047D01*
X200828761Y-68329523D01*
X200733523Y-68424761D01*
X200638285Y-68472380D01*
X200447809Y-68472380D01*
X200352571Y-68424761D01*
X200257333Y-68329523D01*
X200209714Y-68139047D01*
X200209714Y-67805714D01*
X200257333Y-67615238D01*
X200352571Y-67520000D01*
X200447809Y-67472380D01*
X201304952Y-68472380D02*
X201304952Y-67472380D01*
X201543047Y-67472380D01*
X201685904Y-67520000D01*
X201781142Y-67615238D01*
X201828761Y-67710476D01*
X201876380Y-67900952D01*
X201876380Y-68043809D01*
X201828761Y-68234285D01*
X201781142Y-68329523D01*
X201685904Y-68424761D01*
X201543047Y-68472380D01*
X201304952Y-68472380D01*
X202304952Y-67948571D02*
X202638285Y-67948571D01*
X202781142Y-68472380D02*
X202304952Y-68472380D01*
X202304952Y-67472380D01*
X202781142Y-67472380D01*
%TO.C, *%
D10*
%TO.C,R1*%
X164060000Y-52070000D02*
X163290000Y-52070000D01*
X163290000Y-53440000D02*
X163290000Y-50700000D01*
X156750000Y-50700000D02*
X156750000Y-53440000D01*
X163290000Y-50700000D02*
X156750000Y-50700000D01*
X155980000Y-52070000D02*
X156750000Y-52070000D01*
X156750000Y-53440000D02*
X163290000Y-53440000D01*
%TO.C,R2*%
X132810000Y-50700000D02*
X126270000Y-50700000D01*
X125500000Y-52070000D02*
X126270000Y-52070000D01*
X132810000Y-53440000D02*
X132810000Y-50700000D01*
X133580000Y-52070000D02*
X132810000Y-52070000D01*
X126270000Y-53440000D02*
X132810000Y-53440000D01*
X126270000Y-50700000D02*
X126270000Y-53440000D01*
%TO.C,R3*%
X144550000Y-79248000D02*
X145320000Y-79248000D01*
X151860000Y-80618000D02*
X151860000Y-77878000D01*
X152630000Y-79248000D02*
X151860000Y-79248000D01*
X145320000Y-80618000D02*
X151860000Y-80618000D01*
X151860000Y-77878000D02*
X145320000Y-77878000D01*
X145320000Y-77878000D02*
X145320000Y-80618000D01*
%TO.C,R4*%
X178030000Y-57150000D02*
X177260000Y-57150000D01*
X169950000Y-57150000D02*
X170720000Y-57150000D01*
X170720000Y-58520000D02*
X177260000Y-58520000D01*
X177260000Y-55780000D02*
X170720000Y-55780000D01*
X177260000Y-58520000D02*
X177260000Y-55780000D01*
X170720000Y-55780000D02*
X170720000Y-58520000D01*
%TO.C,R5*%
X177260000Y-76100000D02*
X170720000Y-76100000D01*
X170720000Y-78840000D02*
X177260000Y-78840000D01*
X170720000Y-76100000D02*
X170720000Y-78840000D01*
X177260000Y-78840000D02*
X177260000Y-76100000D01*
X178030000Y-77470000D02*
X177260000Y-77470000D01*
X169950000Y-77470000D02*
X170720000Y-77470000D01*
%TO.C,R6*%
X132056000Y-77470000D02*
X131286000Y-77470000D01*
X124746000Y-76100000D02*
X124746000Y-78840000D01*
X123976000Y-77470000D02*
X124746000Y-77470000D01*
X124746000Y-78840000D02*
X131286000Y-78840000D01*
X131286000Y-76100000D02*
X124746000Y-76100000D01*
X131286000Y-78840000D02*
X131286000Y-76100000D01*
%TO.C,R7*%
X178030000Y-60960000D02*
X177260000Y-60960000D01*
X169950000Y-60960000D02*
X170720000Y-60960000D01*
X177260000Y-62330000D02*
X177260000Y-59590000D01*
X177260000Y-59590000D02*
X170720000Y-59590000D01*
X170720000Y-59590000D02*
X170720000Y-62330000D01*
X170720000Y-62330000D02*
X177260000Y-62330000D01*
%TO.C,U1*%
X120540000Y-55820000D02*
X120540000Y-73720000D01*
X120540000Y-73720000D02*
X125840000Y-73720000D01*
X122190000Y-55820000D02*
X120540000Y-55820000D01*
X125840000Y-55820000D02*
X124190000Y-55820000D01*
X125840000Y-73720000D02*
X125840000Y-55820000D01*
X122190000Y-55820000D02*
G75*
G03*
X124190000Y-55820000I1000000J0D01*
G01*
%TO.C,U2*%
X146320000Y-55820000D02*
X144670000Y-55820000D01*
X149970000Y-55820000D02*
X148320000Y-55820000D01*
X149970000Y-73720000D02*
X149970000Y-55820000D01*
X144670000Y-55820000D02*
X144670000Y-73720000D01*
X144670000Y-73720000D02*
X149970000Y-73720000D01*
X146320000Y-55820000D02*
G75*
G03*
X148320000Y-55820000I1000000J0D01*
G01*
%TO.C,U3*%
X175370000Y-63440000D02*
X173720000Y-63440000D01*
X170070000Y-63440000D02*
X170070000Y-73720000D01*
X175370000Y-73720000D02*
X175370000Y-63440000D01*
X170070000Y-73720000D02*
X175370000Y-73720000D01*
X171720000Y-63440000D02*
X170070000Y-63440000D01*
X171720000Y-63440000D02*
G75*
G03*
X173720000Y-63440000I1000000J0D01*
G01*
%TO.C, *%
X141792000Y-58420000D02*
X141792000Y-73720000D01*
X141792000Y-55820000D02*
X141792000Y-57150000D01*
X139132000Y-58420000D02*
X141792000Y-58420000D01*
X140462000Y-55820000D02*
X141792000Y-55820000D01*
X139132000Y-58420000D02*
X139132000Y-73720000D01*
X139132000Y-73720000D02*
X141792000Y-73720000D01*
X152848000Y-73720000D02*
X155508000Y-73720000D01*
X155508000Y-55820000D02*
X155508000Y-57150000D01*
X155508000Y-58420000D02*
X155508000Y-73720000D01*
X152848000Y-58420000D02*
X152848000Y-73720000D01*
X154178000Y-55820000D02*
X155508000Y-55820000D01*
X152848000Y-58420000D02*
X155508000Y-58420000D01*
X167192000Y-66040000D02*
X167192000Y-73720000D01*
X164532000Y-66040000D02*
X167192000Y-66040000D01*
X164532000Y-66040000D02*
X164532000Y-73720000D01*
X164532000Y-73720000D02*
X167192000Y-73720000D01*
X167192000Y-63440000D02*
X167192000Y-64770000D01*
X165862000Y-63440000D02*
X167192000Y-63440000D01*
X182118000Y-76140000D02*
X183448000Y-76140000D01*
X183448000Y-78680000D02*
X183448000Y-78800000D01*
X180788000Y-78680000D02*
X180788000Y-78800000D01*
X180788000Y-78800000D02*
X183448000Y-78800000D01*
X183448000Y-76140000D02*
X183448000Y-77470000D01*
%TO.C,REF\u002A\u002A*%
X178273000Y-66040000D02*
X178273000Y-71180000D01*
X180933000Y-63440000D02*
X180933000Y-64770000D01*
X178273000Y-71180000D02*
X180933000Y-71180000D01*
X178273000Y-66040000D02*
X180933000Y-66040000D01*
X180933000Y-66040000D02*
X180933000Y-71180000D01*
X179603000Y-63440000D02*
X180933000Y-63440000D01*
%TO.C,RESET*%
X204160000Y-87618000D02*
X204160000Y-86118000D01*
X202910000Y-83618000D02*
X198410000Y-83618000D01*
X198410000Y-90118000D02*
X202910000Y-90118000D01*
X197160000Y-86118000D02*
X197160000Y-87618000D01*
%TO.C,R (PIEZO)*%
X208942000Y-68104000D02*
X208942000Y-74644000D01*
X211682000Y-68104000D02*
X208942000Y-68104000D01*
X210312000Y-67334000D02*
X210312000Y-68104000D01*
X208942000Y-74644000D02*
X211682000Y-74644000D01*
X210312000Y-75414000D02*
X210312000Y-74644000D01*
X211682000Y-74644000D02*
X211682000Y-68104000D01*
%TO.C,R (LED)*%
X191992000Y-92810000D02*
X191992000Y-90070000D01*
X191992000Y-90070000D02*
X185452000Y-90070000D01*
X185452000Y-90070000D02*
X185452000Y-92810000D01*
X184682000Y-91440000D02*
X185452000Y-91440000D01*
X185452000Y-92810000D02*
X191992000Y-92810000D01*
X192762000Y-91440000D02*
X191992000Y-91440000D01*
%TO.C, *%
X164278000Y-58480000D02*
X166938000Y-58480000D01*
X164278000Y-58360000D02*
X164278000Y-58480000D01*
X165608000Y-55820000D02*
X166938000Y-55820000D01*
X166938000Y-58360000D02*
X166938000Y-58480000D01*
X166938000Y-55820000D02*
X166938000Y-57150000D01*
X150562000Y-53280000D02*
X150562000Y-53400000D01*
X150562000Y-53400000D02*
X153222000Y-53400000D01*
X151892000Y-50740000D02*
X153222000Y-50740000D01*
X153222000Y-53280000D02*
X153222000Y-53400000D01*
X153222000Y-50740000D02*
X153222000Y-52070000D01*
X160976000Y-66040000D02*
X160976000Y-68640000D01*
X163636000Y-66040000D02*
X163636000Y-68640000D01*
X160976000Y-68640000D02*
X163636000Y-68640000D01*
X160976000Y-66040000D02*
X163636000Y-66040000D01*
X162306000Y-63440000D02*
X163636000Y-63440000D01*
X163636000Y-63440000D02*
X163636000Y-64770000D01*
X165862000Y-76140000D02*
X167192000Y-76140000D01*
X164532000Y-78680000D02*
X164532000Y-78800000D01*
X164532000Y-78800000D02*
X167192000Y-78800000D01*
X167192000Y-78680000D02*
X167192000Y-78800000D01*
X167192000Y-76140000D02*
X167192000Y-77470000D01*
X166938000Y-59630000D02*
X166938000Y-60960000D01*
X164278000Y-62170000D02*
X164278000Y-62290000D01*
X165608000Y-59630000D02*
X166938000Y-59630000D01*
X166938000Y-62170000D02*
X166938000Y-62290000D01*
X164278000Y-62290000D02*
X166938000Y-62290000D01*
%TO.C,LED*%
X182351000Y-87142000D02*
X185441000Y-87142000D01*
X183896462Y-81592000D02*
G75*
G03*
X182351170Y-87142000I-462J-2990000D01*
G01*
X185440830Y-87142000D02*
G75*
G03*
X183895538Y-81592000I-1544830J2560000D01*
G01*
X186396000Y-84582000D02*
G75*
G03*
X186396000Y-84582000I-2500000J0D01*
G01*
%TO.C, *%
X137474000Y-76140000D02*
X137474000Y-77470000D01*
X134814000Y-78680000D02*
X134814000Y-78800000D01*
X137474000Y-78680000D02*
X137474000Y-78800000D01*
X134814000Y-78800000D02*
X137474000Y-78800000D01*
X136144000Y-76140000D02*
X137474000Y-76140000D01*
%TO.C,PIEZO*%
X210062000Y-59436000D02*
G75*
G03*
X210062000Y-59436000I-6100000J0D01*
G01*
%TO.C, *%
X163636000Y-49590000D02*
X163636000Y-46930000D01*
X161036000Y-49590000D02*
X161036000Y-46930000D01*
X158436000Y-48260000D02*
X158436000Y-46930000D01*
X161036000Y-49590000D02*
X163636000Y-49590000D01*
X161036000Y-46930000D02*
X163636000Y-46930000D01*
X158436000Y-46930000D02*
X159766000Y-46930000D01*
X180788000Y-58360000D02*
X180788000Y-58480000D01*
X180788000Y-58480000D02*
X183448000Y-58480000D01*
X182118000Y-55820000D02*
X183448000Y-55820000D01*
X183448000Y-55820000D02*
X183448000Y-57150000D01*
X183448000Y-58360000D02*
X183448000Y-58480000D01*
X130048000Y-63440000D02*
X131378000Y-63440000D01*
X128718000Y-65980000D02*
X128718000Y-66100000D01*
X131378000Y-63440000D02*
X131378000Y-64770000D01*
X131378000Y-65980000D02*
X131378000Y-66100000D01*
X128718000Y-66100000D02*
X131378000Y-66100000D01*
%TO.C,MODE*%
X200320667Y-73035000D02*
X200320667Y-74305000D01*
X199114000Y-70495000D02*
X199114000Y-71765000D01*
X199114000Y-71215000D02*
X200320667Y-71215000D01*
X197514000Y-72170000D02*
X197514000Y-72681000D01*
X199114000Y-78115000D02*
X199114000Y-79385000D01*
X199114000Y-73395000D02*
X200320667Y-73395000D01*
X202734000Y-71765000D02*
X202734000Y-70495000D01*
X199114000Y-76175000D02*
X200320667Y-76175000D01*
X199114000Y-76535000D02*
X200320667Y-76535000D01*
X199114000Y-78595000D02*
X200320667Y-78595000D01*
X199114000Y-75695000D02*
X200320667Y-75695000D01*
X199114000Y-79315000D02*
X200320667Y-79315000D01*
X199114000Y-71695000D02*
X200320667Y-71695000D01*
X204335000Y-69020000D02*
X204335000Y-70140000D01*
X200320667Y-70495000D02*
X200320667Y-71765000D01*
X199114000Y-78355000D02*
X200320667Y-78355000D01*
X197514000Y-74660000D02*
X197514000Y-75221000D01*
X199114000Y-74305000D02*
X202734000Y-74305000D01*
X204335000Y-74660000D02*
X204335000Y-75221000D01*
X204335000Y-77200000D02*
X204335000Y-77761000D01*
X199114000Y-76845000D02*
X202734000Y-76845000D01*
X199114000Y-76655000D02*
X200320667Y-76655000D01*
X199114000Y-79075000D02*
X200320667Y-79075000D01*
X199114000Y-74115000D02*
X200320667Y-74115000D01*
X199114000Y-71095000D02*
X200320667Y-71095000D01*
X199114000Y-78235000D02*
X200320667Y-78235000D01*
X199114000Y-71765000D02*
X202734000Y-71765000D01*
X199114000Y-78475000D02*
X200320667Y-78475000D01*
X202734000Y-70495000D02*
X199114000Y-70495000D01*
X202734000Y-78115000D02*
X199114000Y-78115000D01*
X199114000Y-78715000D02*
X200320667Y-78715000D01*
X199114000Y-75935000D02*
X200320667Y-75935000D01*
X200320667Y-75575000D02*
X200320667Y-76845000D01*
X199114000Y-71455000D02*
X200320667Y-71455000D01*
X199114000Y-75815000D02*
X200320667Y-75815000D01*
X200320667Y-78115000D02*
X200320667Y-79385000D01*
X199114000Y-79195000D02*
X200320667Y-79195000D01*
X199114000Y-73275000D02*
X200320667Y-73275000D01*
X199114000Y-70615000D02*
X200320667Y-70615000D01*
X199114000Y-70975000D02*
X200320667Y-70975000D01*
X202734000Y-74305000D02*
X202734000Y-73035000D01*
X197514000Y-79740000D02*
X197514000Y-80860000D01*
X199114000Y-76775000D02*
X200320667Y-76775000D01*
X197514000Y-80860000D02*
X204335000Y-80860000D01*
X199114000Y-71575000D02*
X200320667Y-71575000D01*
X199114000Y-78955000D02*
X200320667Y-78955000D01*
X199114000Y-70855000D02*
X200320667Y-70855000D01*
X199114000Y-73635000D02*
X200320667Y-73635000D01*
X202734000Y-76845000D02*
X202734000Y-75575000D01*
X197514000Y-69020000D02*
X204335000Y-69020000D01*
X199114000Y-73155000D02*
X200320667Y-73155000D01*
X199114000Y-73515000D02*
X200320667Y-73515000D01*
X199114000Y-75575000D02*
X199114000Y-76845000D01*
X202734000Y-73035000D02*
X199114000Y-73035000D01*
X199114000Y-73995000D02*
X200320667Y-73995000D01*
X199114000Y-78835000D02*
X200320667Y-78835000D01*
X199114000Y-73035000D02*
X199114000Y-74305000D01*
X197274000Y-68780000D02*
X198657000Y-68780000D01*
X199114000Y-76295000D02*
X200320667Y-76295000D01*
X199114000Y-76415000D02*
X200320667Y-76415000D01*
X204335000Y-79740000D02*
X204335000Y-80860000D01*
X199114000Y-70735000D02*
X200320667Y-70735000D01*
X199114000Y-79385000D02*
X202734000Y-79385000D01*
X199114000Y-74235000D02*
X200320667Y-74235000D01*
X199114000Y-73875000D02*
X200320667Y-73875000D01*
X202734000Y-75575000D02*
X199114000Y-75575000D01*
X202734000Y-79385000D02*
X202734000Y-78115000D01*
X199114000Y-71335000D02*
X200320667Y-71335000D01*
X199114000Y-76055000D02*
X200320667Y-76055000D01*
X197274000Y-68780000D02*
X197274000Y-70090000D01*
X199114000Y-73755000D02*
X200320667Y-73755000D01*
X204335000Y-72120000D02*
X204335000Y-72681000D01*
X197514000Y-69020000D02*
X197514000Y-70090000D01*
X197514000Y-77200000D02*
X197514000Y-77761000D01*
%TO.C, *%
X120082000Y-53400000D02*
X122742000Y-53400000D01*
X122742000Y-53280000D02*
X122742000Y-53400000D01*
X121412000Y-50740000D02*
X122742000Y-50740000D01*
X120082000Y-53280000D02*
X120082000Y-53400000D01*
X122742000Y-50740000D02*
X122742000Y-52070000D01*
X161290000Y-82769000D02*
X156150000Y-82769000D01*
X163890000Y-85429000D02*
X162560000Y-85429000D01*
X156150000Y-82769000D02*
X156150000Y-85429000D01*
X161290000Y-82769000D02*
X161290000Y-85429000D01*
X163890000Y-84099000D02*
X163890000Y-85429000D01*
X161290000Y-85429000D02*
X156150000Y-85429000D01*
X183448000Y-59630000D02*
X183448000Y-60960000D01*
X180788000Y-62290000D02*
X183448000Y-62290000D01*
X180788000Y-62170000D02*
X180788000Y-62290000D01*
X183448000Y-62170000D02*
X183448000Y-62290000D01*
X182118000Y-59630000D02*
X183448000Y-59630000D01*
X118304000Y-78680000D02*
X118304000Y-78800000D01*
X119634000Y-76140000D02*
X120964000Y-76140000D01*
X120964000Y-78680000D02*
X120964000Y-78800000D01*
X120964000Y-76140000D02*
X120964000Y-77470000D01*
X118304000Y-78800000D02*
X120964000Y-78800000D01*
X128718000Y-73600000D02*
X128718000Y-73720000D01*
X128718000Y-73720000D02*
X131378000Y-73720000D01*
X130048000Y-71060000D02*
X131378000Y-71060000D01*
X131378000Y-73600000D02*
X131378000Y-73720000D01*
X131378000Y-71060000D02*
X131378000Y-72390000D01*
X128718000Y-61020000D02*
X131378000Y-61020000D01*
X128718000Y-58420000D02*
X128718000Y-61020000D01*
X131378000Y-58420000D02*
X131378000Y-61020000D01*
X128718000Y-58420000D02*
X131378000Y-58420000D01*
X131378000Y-55820000D02*
X131378000Y-57150000D01*
X130048000Y-55820000D02*
X131378000Y-55820000D01*
X117687000Y-58186000D02*
X117687000Y-60786000D01*
X115027000Y-58186000D02*
X117687000Y-58186000D01*
X117687000Y-55586000D02*
X117687000Y-56916000D01*
X115027000Y-60786000D02*
X117687000Y-60786000D01*
X116357000Y-55586000D02*
X117687000Y-55586000D01*
X115027000Y-58186000D02*
X115027000Y-60786000D01*
X166818000Y-53400000D02*
X169478000Y-53400000D01*
X169478000Y-53280000D02*
X169478000Y-53400000D01*
X169478000Y-50740000D02*
X169478000Y-52070000D01*
X166818000Y-53280000D02*
X166818000Y-53400000D01*
X168148000Y-50740000D02*
X169478000Y-50740000D01*
X137668000Y-50740000D02*
X138998000Y-50740000D01*
X136338000Y-53280000D02*
X136338000Y-53400000D01*
X138998000Y-50740000D02*
X138998000Y-52070000D01*
X136338000Y-53400000D02*
X138998000Y-53400000D01*
X138998000Y-53280000D02*
X138998000Y-53400000D01*
X139132000Y-80578000D02*
X141792000Y-80578000D01*
X141792000Y-80458000D02*
X141792000Y-80578000D01*
X140462000Y-77918000D02*
X141792000Y-77918000D01*
X139132000Y-80458000D02*
X139132000Y-80578000D01*
X141792000Y-77918000D02*
X141792000Y-79248000D01*
X136906000Y-55840000D02*
X138236000Y-55840000D01*
X135576000Y-61040000D02*
X138236000Y-61040000D01*
X138236000Y-58440000D02*
X138236000Y-61040000D01*
X135576000Y-58440000D02*
X138236000Y-58440000D01*
X135576000Y-58440000D02*
X135576000Y-61040000D01*
X138236000Y-55840000D02*
X138236000Y-57170000D01*
X116357000Y-68540000D02*
X117687000Y-68540000D01*
X117687000Y-68540000D02*
X117687000Y-69870000D01*
X117687000Y-71140000D02*
X117687000Y-73740000D01*
X115027000Y-71140000D02*
X117687000Y-71140000D01*
X115027000Y-71140000D02*
X115027000Y-73740000D01*
X115027000Y-73740000D02*
X117687000Y-73740000D01*
X158048000Y-77918000D02*
X158048000Y-79248000D01*
X156718000Y-77918000D02*
X158048000Y-77918000D01*
X155388000Y-80578000D02*
X158048000Y-80578000D01*
X155388000Y-80458000D02*
X155388000Y-80578000D01*
X158048000Y-80458000D02*
X158048000Y-80578000D01*
%TD*%
M02*
