M48
; DRILL file {KiCad (6.0.5)} date Mon Jun 20 20:36:36 2022
; FORMAT={-:-/ absolute / metric / decimal}
; #@! TF.CreationDate,2022-06-20T20:36:36+02:00
; #@! TF.GenerationSoftware,Kicad,Pcbnew,(6.0.5)
; #@! TF.FileFunction,Plated,1,2,PTH
FMAT,2
METRIC
; #@! TA.AperFunction,Plated,PTH,ComponentDrill
T1C0.800
; #@! TA.AperFunction,Plated,PTH,ComponentDrill
T2C0.900
; #@! TA.AperFunction,Plated,PTH,ComponentDrill
T3C1.000
; #@! TA.AperFunction,Plated,PTH,ComponentDrill
T4C1.100
%
G90
G05
T1
X119.38Y-57.15
X119.38Y-59.69
X119.38Y-62.23
X119.38Y-64.77
X119.38Y-67.31
X119.38Y-69.85
X119.38Y-72.39
X122.936Y-77.47
X124.46Y-52.07
X127.0Y-57.15
X127.0Y-59.69
X127.0Y-62.23
X127.0Y-64.77
X127.0Y-67.31
X127.0Y-69.85
X127.0Y-72.39
X133.096Y-77.47
X134.62Y-52.07
X143.51Y-57.15
X143.51Y-59.69
X143.51Y-62.23
X143.51Y-64.77
X143.51Y-67.31
X143.51Y-69.85
X143.51Y-72.39
X143.51Y-79.248
X151.13Y-57.15
X151.13Y-59.69
X151.13Y-62.23
X151.13Y-64.77
X151.13Y-67.31
X151.13Y-69.85
X151.13Y-72.39
X153.67Y-79.248
X154.94Y-52.07
X165.1Y-52.07
X168.91Y-57.15
X168.91Y-60.96
X168.91Y-64.77
X168.91Y-67.31
X168.91Y-69.85
X168.91Y-72.39
X168.91Y-77.47
X176.53Y-64.77
X176.53Y-67.31
X176.53Y-69.85
X176.53Y-72.39
X179.07Y-57.15
X179.07Y-60.96
X179.07Y-77.47
X183.642Y-91.44
X193.802Y-91.44
X197.114Y-71.13
X197.114Y-73.67
X197.114Y-76.21
X197.114Y-78.75
X204.734Y-71.13
X204.734Y-73.67
X204.734Y-76.21
X204.734Y-78.75
X210.312Y-66.294
X210.312Y-76.454
T2
X183.896Y-83.312
X183.896Y-85.852
T3
X116.357Y-56.916
X116.357Y-59.456
X116.357Y-69.87
X116.357Y-72.41
X119.634Y-77.47
X121.412Y-52.07
X130.048Y-57.15
X130.048Y-59.69
X130.048Y-64.77
X130.048Y-72.39
X136.144Y-77.47
X136.906Y-57.17
X136.906Y-59.71
X137.668Y-52.07
X140.462Y-57.15
X140.462Y-59.69
X140.462Y-62.23
X140.462Y-64.77
X140.462Y-67.31
X140.462Y-69.85
X140.462Y-72.39
X140.462Y-79.248
X151.892Y-52.07
X154.178Y-57.15
X154.178Y-59.69
X154.178Y-62.23
X154.178Y-64.77
X154.178Y-67.31
X154.178Y-69.85
X154.178Y-72.39
X156.718Y-79.248
X157.48Y-84.099
X159.766Y-48.26
X160.02Y-84.099
X162.306Y-48.26
X162.306Y-64.77
X162.306Y-67.31
X162.56Y-84.099
X165.608Y-57.15
X165.608Y-60.96
X165.862Y-64.77
X165.862Y-67.31
X165.862Y-69.85
X165.862Y-72.39
X165.862Y-77.47
X168.148Y-52.07
X179.603Y-64.77
X179.603Y-67.31
X179.603Y-69.85
X182.118Y-57.15
X182.118Y-60.96
X182.118Y-77.47
X191.77Y-48.26
X191.77Y-50.8
X191.77Y-53.34
X191.77Y-55.88
X191.77Y-58.42
X191.77Y-60.96
X191.77Y-63.5
X191.77Y-66.04
X191.77Y-68.58
X191.77Y-71.12
X191.77Y-73.66
X191.77Y-76.2
X191.77Y-78.74
X191.77Y-81.28
X191.77Y-83.82
X194.31Y-48.26
X194.31Y-50.8
X194.31Y-53.34
X194.31Y-55.88
X194.31Y-58.42
X194.31Y-60.96
X194.31Y-63.5
X194.31Y-66.04
X194.31Y-68.58
X194.31Y-71.12
X194.31Y-73.66
X194.31Y-76.2
X194.31Y-78.74
X194.31Y-81.28
X194.31Y-83.82
X200.162Y-59.436
X207.762Y-59.436
T4
X197.41Y-84.618
X197.41Y-89.118
X203.91Y-84.618
X203.91Y-89.118
T0
M30
